<svg width="50" height="50" viewBox="0 0 50 50" fill="none" xmlns="http://www.w3.org/2000/svg">
<path d="M45 25C45 13.9543 36.0457 5 25 5C13.9543 5 5 13.9543 5 25C5 36.0457 13.9543 45 25 45V50L24.3545 49.9922C11.0602 49.6553 0.34475 38.9398 0.0078125 25.6455L0 25C0 11.1929 11.1929 0 25 0L25.6455 0.0078125C39.1543 0.350187 50 11.4087 50 25L49.9922 25.6455C49.6498 39.1543 38.5913 50 25 50V45C36.0457 45 45 36.0457 45 25ZM22.5 11.3633C22.5002 9.98273 23.6194 8.86328 25 8.86328C26.3806 8.86328 27.4998 9.98273 27.5 11.3633V23.9648L35.8584 32.3232C36.8347 33.2996 36.8347 34.8821 35.8584 35.8584C34.8821 36.8347 33.2996 36.8347 32.3232 35.8584L22.5 26.0352V11.3633Z" fill="#271D16"/>
</svg>
