<svg width="48" height="50" viewBox="0 0 48 50" fill="none" xmlns="http://www.w3.org/2000/svg">
<path d="M30.8148 50C26.3111 50 22.9531 49.098 20.7407 47.2941C18.5284 45.4118 17.4222 42.3137 17.4222 38V31.4118H0C0 26.9412 0.908642 23.6078 2.72593 21.4118C4.62222 19.2157 7.74321 18.1176 12.0889 18.1176H17.4222V0C21.9259 0 25.284 0.862746 27.4963 2.58824C29.7086 4.31373 30.8148 7.05882 30.8148 10.8235V18.1176H48C48 22.5882 47.1309 25.9216 45.3926 28.1176C43.6543 30.3137 40.8889 31.4118 37.0963 31.4118H30.8148V50Z" fill="#B08A6D"/>
</svg>
