<svg width="91" height="50" viewBox="0 0 91 50" fill="none" xmlns="http://www.w3.org/2000/svg">
<path d="M73.0058 6.75991L90.6666 25.1748L73.2397 43.1235C68.7953 47.7078 64.7017 50 60.959 50C57.6062 50 54.2534 48.0963 50.9005 44.289L65.667 30H13.728C11.168 30 8.992 29.648 7.2 28.944C5.472 28.176 4.064 27.216 2.976 26.064C1.952 24.912 1.184 23.632 0.671997 22.224C0.223997 20.752 0 19.312 0 17.904H59.936H63.3892L50.6666 5.59441C52.0701 3.885 53.5906 2.52525 55.228 1.51515C56.8654 0.505051 58.6588 0 60.6081 0C62.4015 0 64.3508 0.505051 66.4561 1.51515C68.5614 2.60295 70.7446 4.3512 73.0058 6.75991Z" fill="#B08A6D"/>
</svg>
