<svg width="1440" height="91" viewBox="0 0 1440 91" fill="none" xmlns="http://www.w3.org/2000/svg">
<path d="M439 45.5C442.28 39.629 445.561 36.6935 448.841 36.6935C449.906 36.6939 450.972 37.3599 452.037 38.2674C454.331 40.2209 456.627 43.2984 458.921 43.2984C465.24 43.2982 471.559 41.097 477.878 41.0968L678.703 41.0968C681.375 41.0968 684.046 41.296 686.717 41.693C691.063 42.339 695.409 43.511 699.755 45.2076C699.819 45.233 699.882 45.2676 699.928 45.3194C699.973 45.3714 700 45.4353 700 45.5C700 45.5647 699.973 45.6286 699.928 45.6806C699.882 45.7324 699.819 45.767 699.755 45.7924C695.409 47.489 691.063 48.661 686.717 49.307C684.046 49.704 681.375 49.9032 678.703 49.9032L477.878 49.9032C471.559 49.903 465.24 47.7018 458.921 47.7016C456.627 47.7016 454.331 50.7791 452.037 52.7326C450.972 53.6401 449.906 54.3061 448.841 54.3064C445.561 54.3064 442.28 51.371 439 45.5Z" fill="#B08A6D"/>
<path d="M497.74 89.71C496.826 88.8843 496.459 87.7645 497.39 86.5968C498.478 85.2269 499.266 83.8558 499.753 82.4859C500.148 81.3748 500.345 80.2632 500.345 79.152C500.345 68.4239 497.65 57.6958 497.408 46.9677C497.396 46.4625 497.39 45.9565 497.39 45.4513C497.391 34.3316 500.344 23.2113 500.345 12.0917C500.345 10.899 500.131 9.7039 499.704 8.51118C499.214 7.14181 498.443 5.7726 497.39 4.40322C496.488 3.23541 496.86 2.11577 497.771 1.29001C498.689 0.464485 500.187 3.05176e-05 501.822 0C503.457 7.62939e-06 504.957 0.464233 505.875 1.29001C506.786 2.11569 507.155 3.23584 506.253 4.40322C505.201 5.77257 504.429 7.14183 503.939 8.51118C503.513 9.7039 503.299 10.899 503.299 12.0917C503.299 23.2114 506.253 34.3316 506.253 45.4513C506.253 45.9565 506.247 46.4625 506.236 46.9677C505.993 57.6958 503.299 68.4239 503.299 79.152C503.299 80.2632 503.495 81.3748 503.89 82.4859C504.377 83.8558 505.166 85.2269 506.253 86.5968C507.185 87.7645 506.818 88.8843 505.904 89.71C504.983 90.5358 503.472 91 501.822 91C500.172 91 498.66 90.5358 497.74 89.71Z" fill="#B08A6D"/>
<path d="M1001 45.5C997.72 39.629 994.439 36.6935 991.159 36.6935C990.094 36.6939 989.028 37.3599 987.963 38.2674C985.669 40.2209 983.373 43.2984 981.079 43.2984C974.76 43.2982 968.441 41.097 962.122 41.0968L761.297 41.0968C758.625 41.0968 755.954 41.296 753.283 41.693C748.937 42.339 744.591 43.511 740.245 45.2076C740.181 45.233 740.118 45.2676 740.072 45.3194C740.027 45.3714 740 45.4353 740 45.5C740 45.5647 740.027 45.6286 740.072 45.6806C740.118 45.7324 740.181 45.767 740.245 45.7924C744.591 47.489 748.937 48.661 753.283 49.307C755.954 49.704 758.625 49.9032 761.297 49.9032L962.122 49.9032C968.441 49.903 974.76 47.7018 981.079 47.7016C983.373 47.7016 985.669 50.7791 987.963 52.7326C989.028 53.6401 990.094 54.3061 991.159 54.3064C994.439 54.3064 997.72 51.371 1001 45.5Z" fill="#B08A6D"/>
<path d="M942.26 89.71C943.174 88.8843 943.541 87.7645 942.61 86.5968C941.522 85.2269 940.734 83.8558 940.247 82.4859C939.852 81.3748 939.655 80.2632 939.655 79.152C939.655 68.4239 942.35 57.6958 942.592 46.9677C942.604 46.4625 942.61 45.9565 942.61 45.4513C942.609 34.3316 939.656 23.2113 939.655 12.0917C939.655 10.899 939.869 9.7039 940.296 8.51118C940.786 7.14181 941.557 5.7726 942.61 4.40322C943.512 3.23541 943.14 2.11577 942.229 1.29001C941.311 0.464485 939.813 3.05176e-05 938.178 0C936.543 7.62939e-06 935.043 0.464233 934.125 1.29001C933.214 2.11569 932.845 3.23584 933.747 4.40322C934.799 5.77257 935.571 7.14183 936.061 8.51118C936.487 9.7039 936.701 10.899 936.701 12.0917C936.701 23.2114 933.747 34.3316 933.747 45.4513C933.747 45.9565 933.753 46.4625 933.764 46.9677C934.007 57.6958 936.701 68.4239 936.701 79.152C936.701 80.2632 936.505 81.3748 936.11 82.4859C935.623 83.8558 934.834 85.2269 933.747 86.5968C932.815 87.7645 933.182 88.8843 934.096 89.71C935.017 90.5358 936.528 91 938.178 91C939.828 91 941.34 90.5358 942.26 89.71Z" fill="#B08A6D"/>
</svg>
