<svg width="94" height="35" viewBox="0 0 94 35" fill="none" xmlns="http://www.w3.org/2000/svg">
<path d="M65.7585 16.2954H76.3186V3.81543H81.4386V16.2954H92.6385V16.8074H81.4386V30.6954H76.3186V16.8074H65.7585V16.2954Z" fill="#B08A6D"/>
<path d="M20.7996 17.256C20.7996 12.776 22.4849 8.95733 25.8556 5.8C29.2689 2.6 33.4929 1 38.5276 1C43.5622 1 47.6582 2.32267 50.8156 4.968C54.0156 7.57067 55.6156 11.6667 55.6156 17.256C55.6156 21.736 53.9089 25.576 50.4956 28.776C47.1249 31.9333 42.9222 33.512 37.8876 33.512C32.8529 33.512 28.7356 32.2107 25.5356 29.608C22.3782 26.9627 20.7996 22.8453 20.7996 17.256ZM25.9196 17.256C25.9196 22.632 27.0502 26.6 29.3116 29.16C31.5729 31.72 34.4742 33 38.0156 33C41.5569 33 44.5222 31.464 46.9116 28.392C49.3009 25.32 50.4956 21.608 50.4956 17.256C50.4956 11.88 49.3649 7.912 47.1036 5.352C44.8422 2.792 41.9409 1.512 38.3996 1.512C34.8582 1.512 31.8929 3.048 29.5036 6.12C27.1142 9.192 25.9196 12.904 25.9196 17.256Z" fill="#B08A6D"/>
<path d="M12.9675 1.76786H9.95951V32.7439H13.7995V33.2559H0.999512V32.7439H4.83951V1.76786H1.83151V1.25586H12.9675V1.76786Z" fill="#B08A6D"/>
<path d="M81.4386 3.81543H76.3186V16.2954H65.7585V16.8074H76.3186V30.6954H81.4386V16.8074H92.6385V16.2954H81.4386V3.81543ZM82.4385 15.2959H93.6387V17.8076H82.4385V31.6963H75.3184V17.8076H64.7588V15.2959H75.3184V2.81543H82.4385V15.2959Z" fill="#B08A6D"/>
<path d="M55.6156 17.256C55.6156 11.6667 54.0156 7.57067 50.8156 4.968C47.6582 2.32267 43.5622 1 38.5276 1C33.4929 1 29.2689 2.6 25.8556 5.8C22.4849 8.95733 20.7996 12.776 20.7996 17.256L20.8047 17.7754C20.9002 23.1007 22.4772 27.0453 25.5356 29.608C28.7356 32.2107 32.8529 33.512 37.8876 33.512C42.7647 33.512 46.8611 32.0303 50.1768 29.0674L50.4956 28.776C53.9089 25.576 55.6156 21.736 55.6156 17.256ZM49.4961 17.2559C49.4961 11.9905 48.3838 8.31109 46.3545 6.01367C44.2908 3.67741 41.666 2.51172 38.3994 2.51172C35.2003 2.51177 32.5143 3.87757 30.293 6.7334C28.0563 9.60915 26.9199 13.0985 26.9199 17.2559C26.9199 22.5212 28.0321 26.2006 30.0615 28.498C32.1252 30.8341 34.7492 32 38.0156 32C41.2148 32 43.9007 30.6341 46.1221 27.7783C48.3588 24.9026 49.4961 21.4132 49.4961 17.2559ZM50.4814 18.0645C50.3414 22.0694 49.1515 25.512 46.9116 28.392C44.5222 31.464 41.5569 33 38.0156 33C34.585 33 31.7548 31.7989 29.5254 29.3965L29.3116 29.16C27.1915 26.76 26.0651 23.1222 25.9326 18.2471L25.9196 17.256C25.9196 13.0401 27.041 9.42486 29.2832 6.41016L29.5036 6.12C31.8929 3.048 34.8582 1.512 38.3996 1.512C41.9409 1.512 44.8422 2.792 47.1036 5.352C49.3649 7.912 50.4956 11.88 50.4956 17.256L50.4814 18.0645ZM56.6152 17.2559C56.6152 22.0258 54.7846 26.1263 51.1797 29.5059C47.6063 32.8531 43.1513 34.5117 37.8877 34.5117C32.6756 34.5117 28.3194 33.1614 24.9043 30.3838L24.8994 30.3789L24.8936 30.374C21.436 27.4771 19.7998 23.0294 19.7998 17.2559C19.7998 12.4899 21.6065 8.41007 25.1719 5.07031L25.5127 4.75781C29.0654 1.57912 33.4244 5.50925e-05 38.5273 0C43.7427 0 48.0831 1.37356 51.458 4.20117C54.9599 7.05566 56.6152 11.485 56.6152 17.2559Z" fill="#B08A6D"/>
<path d="M13.9678 0.255859V2.76758H10.96V31.7441H14.7998V34.2559H0V31.7441H3.83984V2.76758H0.832031V0.255859H13.9678ZM1.83151 1.25586V1.76786H4.83951V32.7439H0.999512V33.2559H13.7995V32.7439H9.95951V1.76786H12.9675V1.25586H1.83151Z" fill="#B08A6D"/>
</svg>
