<svg width="52" height="50" viewBox="0 0 52 50" fill="none" xmlns="http://www.w3.org/2000/svg">
<path d="M26.0058 0C19.5264 0 17.7789 6.54383 17.7789 11.0577C17.7789 11.0577 -2.94812 15.9321 0.357105 23.0769C2.40447 27.5026 11.9716 27.8846 11.9716 27.8846C6.17195 36.2329 4.22887 41.1002 2.29285 50H19.7146C21.2244 46.2209 22.5485 44.1147 26.0058 40.3846C29.5234 43.6988 30.5082 45.8094 32.297 50H49.7188C47.6226 40.8538 45.6227 35.9496 39.5561 27.8846C39.5561 27.8846 49.5763 27.6724 51.6545 23.0769C54.8982 15.9043 34.2328 11.0577 34.2328 11.0577C34.2328 6.54383 32.4852 0 26.0058 0Z" fill="#B08A6D"/>
</svg>
