<svg width="57" height="57" viewBox="0 0 57 57" fill="none" xmlns="http://www.w3.org/2000/svg">
<path d="M39.1289 23.0645C39.1289 14.1924 31.9365 7.00004 23.0645 7C14.1923 7 7 14.1923 7 23.0645C7.00004 31.9365 14.1924 39.1289 23.0645 39.1289C27.5014 39.1289 31.5129 37.3347 34.4238 34.4238C37.3347 31.5129 39.1289 27.5014 39.1289 23.0645ZM46.1289 23.0645C46.1289 28.1692 44.4654 32.8887 41.6582 36.709L55.9746 51.0254C57.3414 52.3922 57.3414 54.6078 55.9746 55.9746C54.6078 57.3414 52.3922 57.3414 51.0254 55.9746L36.709 41.6582C32.8887 44.4654 28.1692 46.1289 23.0645 46.1289C10.3264 46.1289 4.43248e-05 35.8025 0 23.0645C0 10.3264 10.3264 0 23.0645 0C35.8025 4.43276e-05 46.1289 10.3264 46.1289 23.0645Z" fill="#B08A6D"/>
</svg>
