<svg width="50" height="50" viewBox="0 0 50 50" fill="none" xmlns="http://www.w3.org/2000/svg">
<path d="M2.08333 47.9167H38.7899V11.2101H2.08333V47.9167ZM40.8732 10.5998V46.4437L47.9167 39.4002V3.55631L40.8732 10.5998ZM3.55632 9.12679H39.4002L46.4437 2.08333H10.5998L3.55632 9.12679ZM50 40.2629L40.2628 50H0V9.73714L9.73714 0H50V40.2629Z" fill="#B08A6D"/>
<path d="M36.1111 39.7407C36.1111 37.1839 34.0384 35.1111 31.4815 35.1111C28.9246 35.1111 26.8519 37.1839 26.8519 39.7407C26.8519 42.2976 28.9246 44.3704 31.4815 44.3704C34.0384 44.3704 36.1111 42.2976 36.1111 39.7407Z" fill="#B08A6D"/>
<path d="M25 28.6296C25 26.0728 22.9272 24 20.3704 24C17.8135 24 15.7408 26.0728 15.7408 28.6296C15.7408 31.1865 17.8135 33.2593 20.3704 33.2593C22.9272 33.2593 25 31.1865 25 28.6296Z" fill="#B08A6D"/>
<path d="M13.9484 40.2629C13.9484 37.706 11.8757 35.6332 9.31879 35.6332C6.76192 35.6332 4.68916 37.706 4.68916 40.2629C4.68916 42.8197 6.76192 44.8925 9.31879 44.8925C11.8757 44.8925 13.9484 42.8197 13.9484 40.2629Z" fill="#B08A6D"/>
<path d="M36.1045 17.6204C36.1045 15.0635 34.0317 12.9907 31.4749 12.9907C28.918 12.9907 26.8452 15.0635 26.8452 17.6204C26.8452 20.1772 28.918 22.25 31.4749 22.25C34.0317 22.25 36.1045 20.1772 36.1045 17.6204Z" fill="#B08A6D"/>
<path d="M13.9484 17.6204C13.9484 15.0635 11.8757 12.9907 9.31879 12.9907C6.76192 12.9907 4.68916 15.0635 4.68916 17.6204C4.68916 20.1772 6.76192 22.25 9.31879 22.25C11.8757 22.25 13.9484 20.1772 13.9484 17.6204Z" fill="#B08A6D"/>
</svg>
