<svg width="85" height="41" viewBox="0 0 85 41" fill="none" xmlns="http://www.w3.org/2000/svg">
<path d="M56.3837 22.44H66.9437V9.95996H72.0637V22.44H83.2637V22.952H72.0637V36.84H66.9437V22.952H56.3837V22.44Z" fill="#B08A6D"/>
<path d="M26.1117 18.6C26.6237 17.576 27.5623 16.616 28.9277 15.72C30.293 14.7813 32.277 14.312 34.8797 14.312C37.525 14.312 40.085 15.272 42.5597 17.192C45.077 19.112 46.3357 21.9707 46.3357 25.768C46.3357 29.5653 45.141 32.8293 42.7517 35.56C40.3623 38.2907 36.9277 39.656 32.4477 39.656C24.2557 39.656 20.1597 34.6427 20.1597 24.616C20.1597 19.9227 21.3543 15.6347 23.7437 11.752C26.5597 7.272 30.6983 4.15733 36.1597 2.408C39.2317 1.46933 42.6663 1 46.4637 1L46.3997 1.448C38.8477 1.448 33.3437 3.88 29.8877 8.744C28.0103 11.3893 26.7517 14.6747 26.1117 18.6ZM25.7917 20.2C25.4077 22.8453 25.2157 25.2773 25.2157 27.496C25.2157 31.2507 25.9197 34.1307 27.3277 36.136C28.7783 38.1413 30.6557 39.144 32.9597 39.144C35.2637 39.144 37.205 37.864 38.7837 35.304C40.405 32.744 41.2157 29.5653 41.2157 25.768C41.2157 21.928 40.469 19.1547 38.9757 17.448C37.525 15.6987 35.7543 14.824 33.6637 14.824C32.2557 14.824 30.8903 15.2293 29.5677 16.04C28.2877 16.8507 27.3277 17.6827 26.6877 18.536C26.0903 19.3467 25.7917 19.9013 25.7917 20.2Z" fill="#B08A6D"/>
<path d="M12.9676 7.91239H9.95963V38.8884H13.7996V39.4004H0.999634V38.8884H4.83963V7.91239H1.83163V7.40039H12.9676V7.91239Z" fill="#B08A6D"/>
<path d="M72.0637 9.95996H66.9437V22.44H56.3837V22.952H66.9437V36.84H72.0637V22.952H83.2637V22.44H72.0637V9.95996ZM73.0635 21.4404H84.2637V23.9521H73.0635V37.8408H65.9434V23.9521H55.3838V21.4404H65.9434V8.95996H73.0635V21.4404Z" fill="#B08A6D"/>
<path d="M19.1592 24.6162C19.1592 19.7438 20.4025 15.2735 22.8916 11.2285L22.8965 11.2197C25.8487 6.5233 30.1892 3.27072 35.8545 1.45605L35.8672 1.45215C39.0493 0.479836 42.585 0 46.4639 0H47.6162L47.4531 1.1416L47.3896 1.58984L47.2666 2.44824H46.3994C39.3041 2.44828 34.2455 4.64878 31.0098 8.90527L30.7031 9.32324C29.5166 10.9952 28.5814 12.9536 27.9062 15.209C28.0566 15.1013 28.2109 14.9943 28.3701 14.8896C29.9718 13.7925 32.1868 13.3125 34.8799 13.3125C37.786 13.3126 40.5564 14.3723 43.1729 16.4023C45.9847 18.5501 47.3359 21.732 47.3359 25.7686C47.3359 29.7957 46.0606 33.2968 43.5039 36.2188C40.8812 39.2161 37.1422 40.6562 32.4473 40.6562C28.1379 40.6562 24.7437 39.328 22.457 36.5293C20.2019 33.7692 19.1592 29.7401 19.1592 24.6162ZM40.2158 25.7686C40.2158 22.016 39.4778 19.5409 38.2227 18.1064L38.2139 18.0967L38.2061 18.0869C36.9267 16.5441 35.4287 15.8243 33.6641 15.8242C32.4616 15.8242 31.277 16.1665 30.0977 16.8877C28.883 17.6576 28.0302 18.4128 27.4873 19.1367C27.2052 19.52 27.0137 19.8166 26.8965 20.0342C26.839 20.1409 26.8071 20.2133 26.792 20.2559V20.2725L26.7812 20.3438C26.4028 22.9507 26.2158 25.3341 26.2158 27.4961C26.2158 31.1468 26.9038 33.7914 28.1455 35.5605C29.4232 37.3214 31.0075 38.1445 32.96 38.1445C34.8117 38.1444 36.4731 37.146 37.9326 34.7793L37.9385 34.7695C39.4356 32.4057 40.2158 29.4241 40.2158 25.7686ZM41.2061 26.4727C41.1111 29.9604 40.3037 32.9039 38.7837 35.304L38.4834 35.7695C36.961 38.0194 35.1195 39.1439 32.9597 39.144C30.6557 39.144 28.7783 38.1413 27.3277 36.136C26.0077 34.2561 25.3062 31.6078 25.2236 28.1904L25.2157 27.496C25.2157 25.2773 25.4077 22.8453 25.7917 20.2C25.7917 19.9013 26.0903 19.3467 26.6877 18.536C27.3277 17.6827 28.2877 16.8507 29.5677 16.04C30.8903 15.2293 32.2557 14.824 33.6637 14.824C35.7543 14.824 37.525 15.6987 38.9757 17.448C40.469 19.1547 41.2157 21.928 41.2157 25.768L41.2061 26.4727ZM20.1597 24.616C20.1597 34.6427 24.2557 39.656 32.4477 39.656C36.7876 39.656 40.1465 38.3751 42.5244 35.8125L42.7517 35.56C44.9915 33.0001 46.1812 29.9719 46.3213 26.4746L46.3357 25.768C46.3357 21.9707 45.077 19.112 42.5597 17.192C40.085 15.272 37.525 14.312 34.8797 14.312C32.277 14.312 30.293 14.7813 28.9277 15.72C27.5623 16.616 26.6237 17.576 26.1117 18.6C26.7117 14.92 27.8555 11.803 29.543 9.24805L29.8877 8.744C33.3437 3.88 38.8477 1.448 46.3997 1.448L46.4637 1C42.6663 1 39.2317 1.46933 36.1597 2.408C30.6983 4.15733 26.5597 7.272 23.7437 11.752C21.3543 15.6347 20.1597 19.9227 20.1597 24.616Z" fill="#B08A6D"/>
<path d="M13.9678 6.40039V8.91211H10.96V37.8887H14.7998V40.4004H0V37.8887H3.83984V8.91211H0.832031V6.40039H13.9678ZM1.83163 7.40039V7.91239H4.83963V38.8884H0.999634V39.4004H13.7996V38.8884H9.95963V7.91239H12.9676V7.40039H1.83163Z" fill="#B08A6D"/>
</svg>
