<svg width="41" height="50" viewBox="0 0 41 50" fill="none" xmlns="http://www.w3.org/2000/svg">
<path d="M24.4554 47.9641C16.4376 47.9641 10.4993 45.6622 6.64042 41.0585C5.26839 39.4082 4.15361 37.2149 3.29609 34.4787C2.43857 31.7426 2.00981 28.4201 2.00981 24.5113C2.00981 20.6026 2.63152 17.1064 3.87492 14.0228C5.1612 10.8957 6.89768 8.48532 9.08436 6.79152C13.3291 3.62106 18.4528 2.03583 24.4554 2.03583C26.3848 2.03583 28.2714 2.18783 30.115 2.49185C31.9587 2.75244 33.3307 3.03474 34.2311 3.33875L35.5817 3.79478L35.3888 4.44624C32.0445 3.27361 28.4 2.68729 24.4554 2.68729C19.9106 2.68729 16.116 4.18566 13.0718 7.18239C10.7565 9.39737 9.12723 12.6547 8.18396 16.9544C7.62657 19.3865 7.34788 22.3615 7.34788 25.8794C7.34788 29.3973 7.84095 32.6546 8.8271 35.6514C9.81325 38.6047 10.928 40.798 12.1714 42.2312C13.4577 43.6644 15.0012 44.8153 16.802 45.6839C18.6028 46.5091 20.0392 46.9869 21.1111 47.1172C22.183 47.2474 23.4478 47.3126 24.9056 47.3126C26.4063 47.3126 28.4 47.1389 30.8868 46.7914V33.3713H23.1048V32.7198H38.9904V33.3713H36.2249V46.2051C32.9663 47.3777 29.0431 47.9641 24.4554 47.9641Z" fill="#B08A6D"/>
<path d="M0 24.5114C0 20.3837 0.65724 16.6192 2.01472 13.2527L2.01963 13.2398C3.41243 9.85382 5.34246 7.12693 7.86359 5.17406L7.87733 5.16312L7.89205 5.15318C12.5289 1.68992 18.0854 1.11843e-05 24.4553 0L24.4554 2.03583C18.4528 2.03583 13.3291 3.62106 9.08436 6.79152C6.89768 8.48532 5.1612 10.8957 3.87492 14.0228L3.64868 14.6057C2.55585 17.5449 2.00981 20.8469 2.00981 24.5113L2.01472 25.2371C2.06495 28.833 2.49215 31.9135 3.29609 34.4787C4.15361 37.2149 5.26839 39.4082 6.64042 41.0585C10.4993 45.6622 16.4376 47.9641 24.4554 47.9641C29.0431 47.9641 32.9663 47.3777 36.2249 46.2051V33.3713H38.9904V32.7198H23.1048V33.3713H30.8868V46.7914C28.4 47.1389 26.4063 47.3126 24.9056 47.3126C23.4478 47.3126 22.183 47.2474 21.1111 47.1172C20.0392 46.9869 18.6028 46.5091 16.802 45.6839C15.0012 44.8153 13.4577 43.6644 12.1714 42.2312C10.928 40.798 9.81325 38.6047 8.8271 35.6514C7.84095 32.6546 7.34788 29.3973 7.34788 25.8794C7.34789 22.5815 7.59257 19.7605 8.08243 17.4168L8.18396 16.9544C9.12723 12.6547 10.7565 9.39737 13.0718 7.18239C16.116 4.18566 19.9106 2.68729 24.4554 2.68729C28.4 2.68729 32.0445 3.27361 35.3888 4.44624L35.5817 3.79478L34.2311 3.33875C33.3307 3.03474 31.9587 2.75244 30.115 2.49185C28.2714 2.18783 26.3848 2.03583 24.4554 2.03583L24.4553 0C26.4736 0 28.4532 0.157951 30.3925 0.475159L31.0785 0.576552C32.639 0.816731 33.9211 1.08835 34.8665 1.40758L38.0667 2.48812L36.7115 7.06475L34.7311 6.36991C31.6211 5.27947 28.2015 4.72276 24.4553 4.72276C20.393 4.72277 17.1138 6.04284 14.473 8.64232L14.4514 8.6622C12.5173 10.5126 11.0333 13.3524 10.1462 17.396L10.1443 17.4049L10.1413 17.4149C9.62941 19.6486 9.35722 22.4589 9.35721 25.8792C9.35721 29.1994 9.82247 32.2341 10.7311 34.9987L10.9097 35.5206C11.8016 38.0624 12.7425 39.7995 13.6683 40.8726C14.7667 42.0936 16.089 43.0829 17.6546 43.8398C19.3834 44.6304 20.5891 45.0038 21.3503 45.0963C22.3208 45.2143 23.5023 45.2772 24.9058 45.2772C25.9313 45.2772 27.2503 45.186 28.8773 44.9969V35.4073H21.0952V30.6835H41V35.4073H38.2345V47.6421L36.8979 48.1232C33.3657 49.3943 29.2019 50 24.4553 50C16.0628 50 9.46887 47.5792 5.10795 42.3766L5.10304 42.3696C3.51516 40.4595 2.29311 38.0061 1.38077 35.0951C0.442847 32.1025 5.66085e-06 28.5591 0 24.5114Z" fill="#B08A6D"/>
</svg>
