<svg width="50" height="50" viewBox="0 0 50 50" fill="none" xmlns="http://www.w3.org/2000/svg">
<path d="M2.08333 47.9167H38.7899V11.2101H2.08333V47.9167ZM40.8732 10.5998V46.4437L47.9167 39.4002V3.55631L40.8732 10.5998ZM3.55632 9.12679H39.4002L46.4437 2.08333H10.5998L3.55632 9.12679ZM50 40.2629L40.2628 50H0V9.73714L9.73714 0H50V40.2629Z" fill="#B08A6D"/>
<path d="M35.1111 38.7407C35.1111 36.1839 33.0384 34.1111 30.4815 34.1111C27.9246 34.1111 25.8519 36.1839 25.8519 38.7407C25.8519 41.2976 27.9246 43.3704 30.4815 43.3704C33.0384 43.3704 35.1111 41.2976 35.1111 38.7407Z" fill="#B08A6D"/>
<path d="M14.9484 39.2629C14.9484 36.706 12.8757 34.6332 10.3188 34.6332C7.76192 34.6332 5.68916 36.706 5.68916 39.2629C5.68916 41.8197 7.76192 43.8925 10.3188 43.8925C12.8757 43.8925 14.9484 41.8197 14.9484 39.2629Z" fill="#B08A6D"/>
<path d="M35.1045 18.6204C35.1045 16.0635 33.0317 13.9907 30.4749 13.9907C27.918 13.9907 25.8452 16.0635 25.8452 18.6204C25.8452 21.1772 27.918 23.25 30.4749 23.25C33.0317 23.25 35.1045 21.1772 35.1045 18.6204Z" fill="#B08A6D"/>
<path d="M14.9484 18.6204C14.9484 16.0635 12.8757 13.9907 10.3188 13.9907C7.76192 13.9907 5.68916 16.0635 5.68916 18.6204C5.68916 21.1772 7.76192 23.25 10.3188 23.25C12.8757 23.25 14.9484 21.1772 14.9484 18.6204Z" fill="#B08A6D"/>
</svg>
