<svg width="50" height="50" viewBox="0 0 50 50" fill="none" xmlns="http://www.w3.org/2000/svg">
<path d="M2.27273 47.7273H38.6364V11.3636H2.27273V47.7273ZM40.9091 10.6978V46.1204L47.7273 39.3022V3.87962L40.9091 10.6978ZM3.87962 9.09091H39.3022L46.1204 2.27273H10.6978L3.87962 9.09091ZM50 40.2433L40.2433 50H0V9.75675L9.75675 0H50V40.2433Z" fill="#B08A6D"/>
<path d="M32.9545 22.7273C32.9545 25.8653 30.4107 28.4091 27.2727 28.4091C24.1347 28.4091 21.5909 25.8653 21.5909 22.7273C21.5909 19.5893 24.1347 17.0455 27.2727 17.0455C30.4107 17.0455 32.9545 19.5893 32.9545 22.7273Z" fill="#B08A6D"/>
<path d="M19.3182 36.3636C19.3182 39.5016 16.7743 42.0455 13.6364 42.0455C10.4984 42.0455 7.95455 39.5016 7.95455 36.3636C7.95455 33.2257 10.4984 30.6818 13.6364 30.6818C16.7743 30.6818 19.3182 33.2257 19.3182 36.3636Z" fill="#B08A6D"/>
</svg>
