<svg width="51" height="51" viewBox="0 0 51 51" fill="none" xmlns="http://www.w3.org/2000/svg">
<path d="M50.75 0.25V40.8467L40.8467 50.75H0.25V10.1533L10.1533 0.25H50.75ZM3.02246 47.9775H38.8867V12.1133H3.02246V47.9775ZM41.6592 11.3018V46.0166L47.9775 39.6982V4.9834L41.6592 11.3018ZM20.9541 24.1133C24.2302 24.1133 26.8867 26.7698 26.8867 30.0459C26.8865 33.3217 24.23 35.9775 20.9541 35.9775C17.6784 35.9773 15.0227 33.3216 15.0225 30.0459C15.0225 26.77 17.6783 24.1135 20.9541 24.1133ZM4.9834 9.34082H39.6982L46.0166 3.02246H11.3018L4.9834 9.34082Z" fill="#B08A6D" stroke="#271D16" stroke-width="0.5"/>
</svg>
