<svg width="114" height="218" viewBox="0 0 114 218" fill="none" xmlns="http://www.w3.org/2000/svg">
<mask id="path-1-outside-1_147_191" maskUnits="userSpaceOnUse" x="-0.5" y="-0.456421" width="115" height="219" fill="black">
<rect fill="white" x="-0.5" y="-0.456421" width="115" height="219"/>
<path d="M0.5 194.45V109.887C0.5 109.224 1.03796 108.686 1.70157 108.686C2.36518 108.686 2.90314 109.224 2.90314 109.887V180.031C2.90314 182.57 4.21459 185.12 6.86221 187.569C9.5112 190.019 13.4103 192.281 18.3287 194.206C28.1594 198.053 41.8219 200.458 56.9737 200.458C59.5435 200.458 62.0723 200.39 64.5469 200.256C65.209 200.221 65.7756 200.727 65.8118 201.389C65.8477 202.052 65.3386 202.618 64.676 202.654C62.1579 202.791 59.5865 202.861 56.9737 202.861C41.6002 202.861 27.6272 200.426 17.4534 196.445C12.3701 194.456 8.17368 192.056 5.22883 189.332C4.34205 188.511 3.56221 187.652 2.90314 186.759V194.45C2.90314 196.989 4.21459 199.538 6.86221 201.988C9.5112 204.438 13.4103 206.7 18.3287 208.625C28.1594 212.471 41.8219 214.877 56.9737 214.877C72.1256 214.877 85.7881 212.471 95.6187 208.625C100.537 206.7 104.436 204.438 107.085 201.988C109.733 199.538 111.044 196.989 111.044 194.45C111.045 193.787 111.583 193.248 112.246 193.248C112.909 193.248 113.447 193.787 113.447 194.45C113.447 197.883 111.665 201.025 108.719 203.75C105.774 206.475 101.577 208.874 96.4941 210.864C86.3203 214.844 72.3473 217.28 56.9737 217.28C41.6002 217.28 27.6272 214.844 17.4534 210.864C12.3701 208.874 8.17368 206.475 5.22883 203.75C2.28297 201.025 0.5 197.883 0.5 194.45Z"/>
<path d="M80.6748 162.008V121.154L90.2874 111.542V152.395L80.6748 162.008Z"/>
<path d="M80.6748 121.154H39.8215L49.434 111.542H90.2874L80.6748 121.154Z"/>
<path d="M84.6027 187.969C84.2855 185.842 83.8134 183.763 83.1858 181.733L77.4536 163.187H69.9064L76.2964 183.861C76.9243 185.892 77.7092 187.876 78.6476 189.811C80.1739 192.958 82.1103 195.979 84.4582 198.873C84.4938 198.916 84.5378 198.956 84.589 198.978C84.6404 199.001 84.6962 199.007 84.7466 198.991C84.797 198.975 84.8403 198.94 84.87 198.892C84.8997 198.845 84.9141 198.788 84.9189 198.732C85.2247 195.017 85.1188 191.43 84.6027 187.969Z"/>
<path d="M80.6748 121.154H39.8215L44.6277 116.348H55.4537C58.0823 117.188 59.6318 117.455 62.9866 116.348H85.4811L80.6748 121.154Z"/>
<path d="M39.8215 121.154H80.6748V162.008H39.8215V121.154Z"/>
<path d="M41.023 160.806H79.4732V122.356H41.023V160.806ZM81.8764 121.652V159.107L89.0858 151.898V114.442L81.8764 121.652ZM42.7221 119.953H80.1773L87.3867 112.743H49.9315L42.7221 119.953ZM91.4889 152.893L81.1723 163.209H38.6199V120.657L48.9365 110.34H91.4889V152.893Z"/>
<path d="M73.4654 134.372C73.4654 137.69 70.7756 140.379 67.4575 140.379C64.1395 140.379 61.4497 137.69 61.4497 134.372C61.4497 131.054 64.1395 128.364 67.4575 128.364C70.7756 128.364 73.4654 131.054 73.4654 134.372Z"/>
<path d="M59.0466 148.79C59.0466 152.108 56.3568 154.798 53.0387 154.798C49.7207 154.798 47.0309 152.108 47.0309 148.79C47.0309 145.472 49.7207 142.783 53.0387 142.783C56.3568 142.783 59.0466 145.472 59.0466 148.79Z"/>
<path d="M23.4089 0.543579C28.7715 1.61808 31.8392 3.40428 32.61 5.89807C32.8596 6.70813 32.5906 7.67954 32.1315 8.70862C31.1429 10.9247 29.273 13.4127 29.8112 15.1569C31.2964 19.9618 34.5047 24.2357 35.9899 29.0406L39.4762 40.3219C47.359 38.3656 55.718 37.6411 63.4528 35.3024C64.3937 35.0179 65.2772 34.5838 66.1022 33.9996C67.0499 33.3285 67.9217 32.4587 68.7165 31.3922C69.3632 30.5196 70.3107 30.5256 71.1804 30.9752C72.0515 31.4293 72.8032 32.3668 73.2419 33.5016C73.6804 34.6363 73.7324 35.7832 73.3581 36.6139C72.9817 37.4402 72.2399 37.9594 71.1247 37.6198C69.7578 37.2067 68.4666 36.9908 67.2526 36.9733C66.1956 36.958 65.1957 37.094 64.2546 37.3785C56.3765 39.7608 49.1441 43.8154 41.3981 46.5397L62.9723 116.337C59.6715 117.508 58.1751 117.251 55.4255 116.337L52.6315 107.296C46.5789 87.7125 40.5261 68.1295 34.4733 48.5465C26.8308 50.3375 18.799 51.1231 11.3366 53.3795C10.4599 53.6447 9.6373 54.0497 8.86785 54.5924C7.91939 55.2614 7.05079 56.1404 6.26531 57.2311C5.62637 58.123 4.6803 58.1178 3.81023 57.6666C2.93851 57.2105 2.18245 56.2664 1.73992 55.1217C1.29734 53.9767 1.24008 52.8197 1.61394 51.9869C1.98971 51.1591 2.73528 50.643 3.85808 51.0026C5.23405 51.4397 6.52888 51.6667 7.74187 51.6823C8.72614 51.6947 9.65789 51.5675 10.5348 51.3024C18.1379 49.0033 25.1515 45.1776 32.5866 42.444C31.425 38.6857 30.2639 34.9268 29.1022 31.1686C27.6173 26.3639 27.8537 21.0269 26.3688 16.2223C25.8295 14.4783 22.8811 13.4785 20.8141 12.2067C19.854 11.6158 19.0843 10.965 18.8337 10.1549C18.0629 7.66109 19.5878 4.45672 23.4089 0.543579Z"/>
<path d="M111.044 158.402V89.4319C110.385 90.3244 109.605 91.1836 108.719 92.0041C105.774 94.7285 101.577 97.1282 96.4941 99.1172C86.3203 103.098 72.3473 105.533 56.9737 105.533C41.6002 105.533 27.6272 103.098 17.4534 99.1172C12.3701 97.1282 8.17368 94.7285 5.22883 92.0041C2.28293 89.2785 0.5 86.1366 0.5 82.7036C0.500271 82.0403 1.03813 81.5021 1.70157 81.5021C2.36501 81.5021 2.90287 82.0403 2.90314 82.7036C2.90314 85.2429 4.21459 87.7922 6.86221 90.2416C9.51119 92.692 13.4103 94.9538 18.3287 96.8784C28.1594 100.725 41.8219 103.13 56.9737 103.13C72.1255 103.13 85.7881 100.725 95.6187 96.8784C100.537 94.9538 104.436 92.692 107.085 90.2416C109.733 87.7922 111.044 85.2429 111.044 82.7036C111.044 78.7447 107.823 74.7475 101.535 71.2723C95.3219 67.8383 86.4606 65.125 76.0252 63.61C75.3689 63.5142 74.9137 62.9029 75.009 62.2464C75.1048 61.5902 75.7161 61.135 76.3725 61.2303C86.9848 62.7711 96.1486 65.5504 102.697 69.1695C109.17 72.7471 113.447 77.3636 113.447 82.7036V158.402C113.447 159.066 112.91 159.604 112.246 159.604C111.582 159.604 111.044 159.066 111.044 158.402Z"/>
</mask>
<path d="M0.5 194.45V109.887C0.5 109.224 1.03796 108.686 1.70157 108.686C2.36518 108.686 2.90314 109.224 2.90314 109.887V180.031C2.90314 182.57 4.21459 185.12 6.86221 187.569C9.5112 190.019 13.4103 192.281 18.3287 194.206C28.1594 198.053 41.8219 200.458 56.9737 200.458C59.5435 200.458 62.0723 200.39 64.5469 200.256C65.209 200.221 65.7756 200.727 65.8118 201.389C65.8477 202.052 65.3386 202.618 64.676 202.654C62.1579 202.791 59.5865 202.861 56.9737 202.861C41.6002 202.861 27.6272 200.426 17.4534 196.445C12.3701 194.456 8.17368 192.056 5.22883 189.332C4.34205 188.511 3.56221 187.652 2.90314 186.759V194.45C2.90314 196.989 4.21459 199.538 6.86221 201.988C9.5112 204.438 13.4103 206.7 18.3287 208.625C28.1594 212.471 41.8219 214.877 56.9737 214.877C72.1256 214.877 85.7881 212.471 95.6187 208.625C100.537 206.7 104.436 204.438 107.085 201.988C109.733 199.538 111.044 196.989 111.044 194.45C111.045 193.787 111.583 193.248 112.246 193.248C112.909 193.248 113.447 193.787 113.447 194.45C113.447 197.883 111.665 201.025 108.719 203.75C105.774 206.475 101.577 208.874 96.4941 210.864C86.3203 214.844 72.3473 217.28 56.9737 217.28C41.6002 217.28 27.6272 214.844 17.4534 210.864C12.3701 208.874 8.17368 206.475 5.22883 203.75C2.28297 201.025 0.5 197.883 0.5 194.45Z" fill="#271D16"/>
<path d="M80.6748 162.008V121.154L90.2874 111.542V152.395L80.6748 162.008Z" fill="#B08A6D"/>
<path d="M80.6748 121.154H39.8215L49.434 111.542H90.2874L80.6748 121.154Z" fill="#B08A6D"/>
<path d="M84.6027 187.969C84.2855 185.842 83.8134 183.763 83.1858 181.733L77.4536 163.187H69.9064L76.2964 183.861C76.9243 185.892 77.7092 187.876 78.6476 189.811C80.1739 192.958 82.1103 195.979 84.4582 198.873C84.4938 198.916 84.5378 198.956 84.589 198.978C84.6404 199.001 84.6962 199.007 84.7466 198.991C84.797 198.975 84.8403 198.94 84.87 198.892C84.8997 198.845 84.9141 198.788 84.9189 198.732C85.2247 195.017 85.1188 191.43 84.6027 187.969Z" fill="#271D16"/>
<path d="M80.6748 121.154H39.8215L44.6277 116.348H55.4537C58.0823 117.188 59.6318 117.455 62.9866 116.348H85.4811L80.6748 121.154Z" fill="#B08A6D"/>
<path d="M39.8215 121.154H80.6748V162.008H39.8215V121.154Z" fill="#B08A6D"/>
<path d="M41.023 160.806H79.4732V122.356H41.023V160.806ZM81.8764 121.652V159.107L89.0858 151.898V114.442L81.8764 121.652ZM42.7221 119.953H80.1773L87.3867 112.743H49.9315L42.7221 119.953ZM91.4889 152.893L81.1723 163.209H38.6199V120.657L48.9365 110.34H91.4889V152.893Z" fill="#271D16"/>
<path d="M73.4654 134.372C73.4654 137.69 70.7756 140.379 67.4575 140.379C64.1395 140.379 61.4497 137.69 61.4497 134.372C61.4497 131.054 64.1395 128.364 67.4575 128.364C70.7756 128.364 73.4654 131.054 73.4654 134.372Z" fill="#271D16"/>
<path d="M59.0466 148.79C59.0466 152.108 56.3568 154.798 53.0387 154.798C49.7207 154.798 47.0309 152.108 47.0309 148.79C47.0309 145.472 49.7207 142.783 53.0387 142.783C56.3568 142.783 59.0466 145.472 59.0466 148.79Z" fill="#271D16"/>
<path d="M23.4089 0.543579C28.7715 1.61808 31.8392 3.40428 32.61 5.89807C32.8596 6.70813 32.5906 7.67954 32.1315 8.70862C31.1429 10.9247 29.273 13.4127 29.8112 15.1569C31.2964 19.9618 34.5047 24.2357 35.9899 29.0406L39.4762 40.3219C47.359 38.3656 55.718 37.6411 63.4528 35.3024C64.3937 35.0179 65.2772 34.5838 66.1022 33.9996C67.0499 33.3285 67.9217 32.4587 68.7165 31.3922C69.3632 30.5196 70.3107 30.5256 71.1804 30.9752C72.0515 31.4293 72.8032 32.3668 73.2419 33.5016C73.6804 34.6363 73.7324 35.7832 73.3581 36.6139C72.9817 37.4402 72.2399 37.9594 71.1247 37.6198C69.7578 37.2067 68.4666 36.9908 67.2526 36.9733C66.1956 36.958 65.1957 37.094 64.2546 37.3785C56.3765 39.7608 49.1441 43.8154 41.3981 46.5397L62.9723 116.337C59.6715 117.508 58.1751 117.251 55.4255 116.337L52.6315 107.296C46.5789 87.7125 40.5261 68.1295 34.4733 48.5465C26.8308 50.3375 18.799 51.1231 11.3366 53.3795C10.4599 53.6447 9.6373 54.0497 8.86785 54.5924C7.91939 55.2614 7.05079 56.1404 6.26531 57.2311C5.62637 58.123 4.6803 58.1178 3.81023 57.6666C2.93851 57.2105 2.18245 56.2664 1.73992 55.1217C1.29734 53.9767 1.24008 52.8197 1.61394 51.9869C1.98971 51.1591 2.73528 50.643 3.85808 51.0026C5.23405 51.4397 6.52888 51.6667 7.74187 51.6823C8.72614 51.6947 9.65789 51.5675 10.5348 51.3024C18.1379 49.0033 25.1515 45.1776 32.5866 42.444C31.425 38.6857 30.2639 34.9268 29.1022 31.1686C27.6173 26.3639 27.8537 21.0269 26.3688 16.2223C25.8295 14.4783 22.8811 13.4785 20.8141 12.2067C19.854 11.6158 19.0843 10.965 18.8337 10.1549C18.0629 7.66109 19.5878 4.45672 23.4089 0.543579Z" fill="#271D16"/>
<path d="M111.044 158.402V89.4319C110.385 90.3244 109.605 91.1836 108.719 92.0041C105.774 94.7285 101.577 97.1282 96.4941 99.1172C86.3203 103.098 72.3473 105.533 56.9737 105.533C41.6002 105.533 27.6272 103.098 17.4534 99.1172C12.3701 97.1282 8.17368 94.7285 5.22883 92.0041C2.28293 89.2785 0.5 86.1366 0.5 82.7036C0.500271 82.0403 1.03813 81.5021 1.70157 81.5021C2.36501 81.5021 2.90287 82.0403 2.90314 82.7036C2.90314 85.2429 4.21459 87.7922 6.86221 90.2416C9.51119 92.692 13.4103 94.9538 18.3287 96.8784C28.1594 100.725 41.8219 103.13 56.9737 103.13C72.1255 103.13 85.7881 100.725 95.6187 96.8784C100.537 94.9538 104.436 92.692 107.085 90.2416C109.733 87.7922 111.044 85.2429 111.044 82.7036C111.044 78.7447 107.823 74.7475 101.535 71.2723C95.3219 67.8383 86.4606 65.125 76.0252 63.61C75.3689 63.5142 74.9137 62.9029 75.009 62.2464C75.1048 61.5902 75.7161 61.135 76.3725 61.2303C86.9848 62.7711 96.1486 65.5504 102.697 69.1695C109.17 72.7471 113.447 77.3636 113.447 82.7036V158.402C113.447 159.066 112.91 159.604 112.246 159.604C111.582 159.604 111.044 159.066 111.044 158.402Z" fill="#271D16"/>
<path d="M80.6748 121.154H80.4248V162.008H80.6748H80.9248V121.154H80.6748ZM80.6748 121.154L80.8516 121.331L90.4641 111.719L90.2874 111.542L90.1106 111.365L80.498 120.978L80.6748 121.154ZM39.8215 121.154V121.404H80.6748V121.154V120.904H39.8215V121.154ZM6.86221 187.569L6.52266 187.936L6.52269 187.936L6.86221 187.569ZM18.3287 194.206L18.1465 194.671L18.1465 194.671L18.3287 194.206ZM64.5469 200.256L64.5202 199.757L64.5199 199.757L64.5469 200.256ZM65.8118 201.389L66.3111 201.362L66.3111 201.362L65.8118 201.389ZM64.676 202.654L64.703 203.154L64.703 203.154L64.676 202.654ZM17.4534 196.445L17.2712 196.91L17.2712 196.91L17.4534 196.445ZM5.22883 189.332L4.88927 189.699L4.88928 189.699L5.22883 189.332ZM2.90314 186.759L3.30535 186.462L2.40314 185.241V186.759H2.90314ZM6.86221 201.988L6.52266 202.355L6.52269 202.355L6.86221 201.988ZM18.3287 208.625L18.1465 209.09L18.1465 209.09L18.3287 208.625ZM95.6187 208.625L95.8009 209.09L95.8009 209.09L95.6187 208.625ZM107.085 201.988L107.425 202.355L107.425 202.355L107.085 201.988ZM111.044 194.45L110.544 194.45V194.45H111.044ZM113.447 194.45L113.947 194.45L113.947 194.45L113.447 194.45ZM108.719 203.75L109.058 204.117L109.058 204.117L108.719 203.75ZM96.4941 210.864L96.6763 211.329L96.6763 211.329L96.4941 210.864ZM17.4534 210.864L17.2712 211.329L17.2712 211.329L17.4534 210.864ZM5.22883 203.75L4.88927 204.117L4.88928 204.117L5.22883 203.75ZM80.6748 162.008V162.508H80.8819L81.0284 162.361L80.6748 162.008ZM90.2874 111.542H90.7874V111.042H90.2874V111.542ZM90.2874 152.395L90.6409 152.749L90.7874 152.602V152.395H90.2874ZM39.8215 121.154L39.4679 120.801L39.3215 120.947V121.154H39.8215ZM49.434 111.542V111.042H49.2269L49.0805 111.188L49.434 111.542ZM83.1858 181.733L83.6635 181.585L83.6635 181.585L83.1858 181.733ZM84.6027 187.969L85.0972 187.895L85.0972 187.895L84.6027 187.969ZM84.9189 198.732L85.4171 198.775L85.4173 198.773L84.9189 198.732ZM84.87 198.892L85.2946 199.156L85.2947 199.156L84.87 198.892ZM84.7466 198.991L84.8935 199.469L84.8942 199.469L84.7466 198.991ZM84.589 198.978L84.3859 199.435L84.3873 199.436L84.589 198.978ZM84.4582 198.873L84.07 199.188L84.0714 199.19L84.4582 198.873ZM78.6476 189.811L78.1977 190.029L78.1977 190.029L78.6476 189.811ZM76.2964 183.861L75.8187 184.009L75.8187 184.009L76.2964 183.861ZM69.9064 163.187V162.687H69.2285L69.4287 163.335L69.9064 163.187ZM77.4536 163.187L77.9313 163.04L77.8224 162.687H77.4536V163.187ZM85.4811 116.348L85.8346 116.702L86.6882 115.848H85.4811V116.348ZM44.6277 116.348V115.848H44.4206L44.2742 115.995L44.6277 116.348ZM55.4537 116.348L55.6058 115.872L55.5316 115.848H55.4537V116.348ZM62.9866 116.348V115.848H62.9062L62.8299 115.873L62.9866 116.348ZM39.8215 162.008H39.3215V162.508H39.8215V162.008ZM41.023 160.806H40.523V161.306H41.023V160.806ZM79.4732 160.806V161.306H79.9732V160.806H79.4732ZM79.4732 122.356H79.9732V121.856H79.4732V122.356ZM41.023 122.356V121.856H40.523V122.356H41.023ZM81.8764 121.652L81.5228 121.298L81.3764 121.445V121.652H81.8764ZM81.8764 159.107H81.3764V160.314L82.2299 159.461L81.8764 159.107ZM89.0858 151.898L89.4393 152.251L89.5858 152.105V151.898H89.0858ZM89.0858 114.442H89.5858V113.235L88.7322 114.089L89.0858 114.442ZM42.7221 119.953L42.3686 119.599L41.515 120.453H42.7221V119.953ZM80.1773 119.953V120.453H80.3844L80.5308 120.306L80.1773 119.953ZM87.3867 112.743L87.7402 113.097L88.5938 112.243H87.3867V112.743ZM49.9315 112.743V112.243H49.7244L49.578 112.39L49.9315 112.743ZM91.4889 152.893L91.8425 153.246L91.9889 153.1V152.893H91.4889ZM81.1723 163.209V163.709H81.3794L81.5259 163.563L81.1723 163.209ZM38.6199 163.209H38.1199V163.709H38.6199V163.209ZM38.6199 120.657L38.2663 120.303L38.1199 120.45V120.657H38.6199ZM48.9365 110.34V109.84H48.7294L48.5829 109.987L48.9365 110.34ZM91.4889 110.34H91.9889V109.84H91.4889V110.34ZM23.4089 0.543579L23.5071 0.0533234L23.2408 -2.4975e-05L23.0511 0.194257L23.4089 0.543579ZM32.61 5.89807L33.0879 5.75087L33.0877 5.75042L32.61 5.89807ZM32.1315 8.70862L32.5881 8.91233L32.5882 8.9123L32.1315 8.70862ZM29.8112 15.1569L29.3334 15.3043L29.3335 15.3045L29.8112 15.1569ZM35.9899 29.0406L36.4676 28.893L36.4676 28.893L35.9899 29.0406ZM39.4762 40.3219L38.9985 40.4695L39.1381 40.921L39.5967 40.8072L39.4762 40.3219ZM63.4528 35.3024L63.5975 35.781L63.5975 35.781L63.4528 35.3024ZM66.1022 33.9996L66.3912 34.4077L66.3912 34.4077L66.1022 33.9996ZM68.7165 31.3922L69.1174 31.691L69.1182 31.6899L68.7165 31.3922ZM71.1804 30.9752L71.4115 30.5318L71.41 30.5311L71.1804 30.9752ZM73.2419 33.5016L73.7083 33.3213L73.7082 33.3213L73.2419 33.5016ZM73.3581 36.6139L73.8131 36.8211L73.8139 36.8193L73.3581 36.6139ZM71.1247 37.6198L71.2704 37.1414L71.2693 37.1411L71.1247 37.6198ZM67.2526 36.9733L67.2598 36.4733L67.2598 36.4733L67.2526 36.9733ZM64.2546 37.3785L64.1099 36.8999L64.1098 36.8999L64.2546 37.3785ZM41.3981 46.5397L41.2322 46.068L40.7783 46.2276L40.9204 46.6873L41.3981 46.5397ZM62.9723 116.337L63.1396 116.808L63.5917 116.647L63.45 116.189L62.9723 116.337ZM55.4255 116.337L54.9478 116.484L55.0237 116.73L55.2677 116.811L55.4255 116.337ZM52.6315 107.296L53.1092 107.148L53.1092 107.148L52.6315 107.296ZM34.4733 48.5465L34.951 48.3989L34.8133 47.9533L34.3592 48.0597L34.4733 48.5465ZM11.3366 53.3795L11.1919 52.9009L11.1918 52.9009L11.3366 53.3795ZM8.86785 54.5924L8.57966 54.1838L8.57965 54.1838L8.86785 54.5924ZM6.26531 57.2311L5.85958 56.9389L5.85885 56.9399L6.26531 57.2311ZM3.81023 57.6666L3.57842 58.1096L3.58008 58.1105L3.81023 57.6666ZM1.73992 55.1217L1.27355 55.302L1.27356 55.302L1.73992 55.1217ZM1.61394 51.9869L1.15864 51.7803L1.15781 51.7821L1.61394 51.9869ZM3.85808 51.0026L3.7056 51.4787L3.7067 51.4791L3.85808 51.0026ZM7.74187 51.6823L7.73547 52.1822L7.73554 52.1822L7.74187 51.6823ZM10.5348 51.3024L10.6795 51.781L10.6796 51.781L10.5348 51.3024ZM32.5866 42.444L32.7591 42.9133L33.2044 42.7496L33.0643 42.2963L32.5866 42.444ZM29.1022 31.1686L28.6245 31.3162L28.6245 31.3162L29.1022 31.1686ZM26.3688 16.2223L26.8465 16.0747L26.8465 16.0746L26.3688 16.2223ZM20.8141 12.2067L20.5521 12.6325L20.5521 12.6325L20.8141 12.2067ZM18.8337 10.1549L18.356 10.3026L18.356 10.3027L18.8337 10.1549ZM111.044 89.4319H111.544V87.9132L110.642 89.1349L111.044 89.4319ZM108.719 92.0041L109.058 92.3711L109.058 92.3711L108.719 92.0041ZM96.4941 99.1172L96.6763 99.5829L96.6763 99.5829L96.4941 99.1172ZM17.4534 99.1172L17.2712 99.5829L17.2712 99.5829L17.4534 99.1172ZM5.22883 92.0041L4.88927 92.3711L4.88928 92.3711L5.22883 92.0041ZM0.5 82.7036L0 82.7034V82.7036H0.5ZM2.90314 82.7036L3.40314 82.7036L3.40314 82.7034L2.90314 82.7036ZM6.86221 90.2416L6.52266 90.6086L6.52269 90.6086L6.86221 90.2416ZM18.3287 96.8784L18.1465 97.344L18.1465 97.344L18.3287 96.8784ZM95.6187 96.8784L95.8009 97.344L95.8009 97.344L95.6187 96.8784ZM107.085 90.2416L107.425 90.6086L107.425 90.6086L107.085 90.2416ZM111.044 82.7036L111.544 82.7036L111.544 82.7036L111.044 82.7036ZM101.535 71.2723L101.777 70.8347L101.777 70.8347L101.535 71.2723ZM76.0252 63.61L75.953 64.1047L75.9533 64.1048L76.0252 63.61ZM75.009 62.2464L74.5142 62.1742L74.5142 62.1746L75.009 62.2464ZM76.3725 61.2303L76.4443 60.7355L76.4443 60.7355L76.3725 61.2303ZM102.697 69.1695L102.939 68.7319L102.939 68.7319L102.697 69.1695ZM113.447 82.7036L113.947 82.7036L113.947 82.7036L113.447 82.7036ZM0.5 194.45H1V109.887H0.5H0V194.45H0.5ZM0.5 109.887H1C1 109.5 1.3141 109.186 1.70157 109.186V108.686V108.186C0.761818 108.186 0 108.947 0 109.887H0.5ZM1.70157 108.686V109.186C2.08903 109.186 2.40314 109.5 2.40314 109.887H2.90314H3.40314C3.40314 108.947 2.64132 108.186 1.70157 108.186V108.686ZM2.90314 109.887H2.40314V180.031H2.90314H3.40314V109.887H2.90314ZM2.90314 180.031H2.40314C2.40314 182.756 3.8127 185.429 6.52266 187.936L6.86221 187.569L7.20176 187.202C4.61649 184.81 3.40314 182.385 3.40314 180.031H2.90314ZM6.86221 187.569L6.52269 187.936C9.23323 190.443 13.1939 192.733 18.1465 194.671L18.3287 194.206L18.5109 193.74C13.6266 191.829 9.78916 189.595 7.20174 187.202L6.86221 187.569ZM18.3287 194.206L18.1465 194.671C28.0486 198.546 41.7757 200.958 56.9737 200.958V200.458V199.958C41.8681 199.958 28.2702 197.559 18.5109 193.74L18.3287 194.206ZM56.9737 200.458V200.958C59.5523 200.958 62.0901 200.89 64.5739 200.755L64.5469 200.256L64.5199 199.757C62.0545 199.89 59.5347 199.958 56.9737 199.958V200.458ZM64.5469 200.256L64.5736 200.755C64.9611 200.734 65.2915 201.031 65.3126 201.417L65.8118 201.389L66.3111 201.362C66.2597 200.424 65.4569 199.707 64.5202 199.757L64.5469 200.256ZM65.8118 201.389L65.3126 201.416C65.3335 201.803 65.0363 202.134 64.6489 202.155L64.676 202.654L64.703 203.154C65.6409 203.103 66.3619 202.301 66.3111 201.362L65.8118 201.389ZM64.676 202.654L64.649 202.155C62.1399 202.291 59.5776 202.361 56.9737 202.361V202.861V203.361C59.5955 203.361 62.1758 203.29 64.703 203.154L64.676 202.654ZM56.9737 202.861V202.361C41.6464 202.361 27.738 199.932 17.6356 195.979L17.4534 196.445L17.2712 196.91C27.5164 200.919 41.554 203.361 56.9737 203.361V202.861ZM17.4534 196.445L17.6356 195.979C12.5866 194.003 8.45171 191.632 5.56838 188.964L5.22883 189.332L4.88928 189.699C7.89565 192.48 12.1537 194.908 17.2712 196.91L17.4534 196.445ZM5.22883 189.332L5.56839 188.965C4.7019 188.163 3.94368 187.327 3.30535 186.462L2.90314 186.759L2.50093 187.056C3.18074 187.977 3.98221 188.859 4.88927 189.699L5.22883 189.332ZM2.90314 186.759H2.40314V194.45H2.90314H3.40314V186.759H2.90314ZM2.90314 194.45H2.40314C2.40314 197.175 3.8127 199.848 6.52266 202.355L6.86221 201.988L7.20176 201.621C4.61649 199.229 3.40314 196.803 3.40314 194.45H2.90314ZM6.86221 201.988L6.52269 202.355C9.23323 204.862 13.1939 207.152 18.1465 209.09L18.3287 208.625L18.5109 208.159C13.6266 206.248 9.78916 204.014 7.20174 201.621L6.86221 201.988ZM18.3287 208.625L18.1465 209.09C28.0486 212.965 41.7757 215.377 56.9737 215.377V214.877V214.377C41.8681 214.377 28.2702 211.978 18.5109 208.159L18.3287 208.625ZM56.9737 214.877V215.377C72.1718 215.377 85.8988 212.965 95.8009 209.09L95.6187 208.625L95.4365 208.159C85.6773 211.978 72.0794 214.377 56.9737 214.377V214.877ZM95.6187 208.625L95.8009 209.09C100.754 207.152 104.714 204.862 107.425 202.355L107.085 201.988L106.746 201.621C104.158 204.014 100.321 206.248 95.4365 208.159L95.6187 208.625ZM107.085 201.988L107.425 202.355C110.135 199.848 111.544 197.175 111.544 194.45H111.044H110.544C110.544 196.803 109.331 199.229 106.746 201.621L107.085 201.988ZM111.044 194.45L111.544 194.45C111.545 194.063 111.859 193.748 112.246 193.748V193.248V192.748C111.306 192.748 110.545 193.511 110.544 194.45L111.044 194.45ZM112.246 193.248V193.748C112.633 193.748 112.947 194.063 112.947 194.45L113.447 194.45L113.947 194.45C113.947 193.511 113.186 192.748 112.246 192.748V193.248ZM113.447 194.45H112.947C112.947 197.697 111.263 200.715 108.379 203.383L108.719 203.75L109.058 204.117C112.066 201.335 113.947 198.069 113.947 194.45H113.447ZM108.719 203.75L108.379 203.383C105.496 206.051 101.361 208.422 96.3119 210.398L96.4941 210.864L96.6763 211.329C101.794 209.327 106.052 206.899 109.058 204.117L108.719 203.75ZM96.4941 210.864L96.3119 210.398C86.2095 214.351 72.3011 216.78 56.9737 216.78V217.28V217.78C72.3934 217.78 86.431 215.338 96.6763 211.329L96.4941 210.864ZM56.9737 217.28V216.78C41.6464 216.78 27.738 214.351 17.6356 210.398L17.4534 210.864L17.2712 211.329C27.5164 215.338 41.554 217.78 56.9737 217.78V217.28ZM17.4534 210.864L17.6356 210.398C12.5866 208.422 8.45171 206.051 5.56838 203.383L5.22883 203.75L4.88928 204.117C7.89565 206.899 12.1537 209.327 17.2712 211.329L17.4534 210.864ZM5.22883 203.75L5.56839 203.383C2.68444 200.715 1 197.697 1 194.45H0.5H0C0 198.069 1.88149 201.335 4.88927 204.117L5.22883 203.75ZM90.2874 111.542H89.7874V152.395H90.2874H90.7874V111.542H90.2874ZM90.2874 152.395L89.9338 152.042L80.3212 161.654L80.6748 162.008L81.0284 162.361L90.6409 152.749L90.2874 152.395ZM90.2874 111.542V111.042H49.434V111.542V112.042H90.2874V111.542ZM49.434 111.542L49.0805 111.188L39.4679 120.801L39.8215 121.154L40.175 121.508L49.7876 111.895L49.434 111.542ZM83.1858 181.733L82.7081 181.88C83.3281 183.887 83.7946 185.941 84.1081 188.043L84.6027 187.969L85.0972 187.895C84.7763 185.744 84.2987 183.64 83.6635 181.585L83.1858 181.733ZM84.6027 187.969L84.1081 188.043C84.6182 191.463 84.7234 195.012 84.4206 198.691L84.9189 198.732L85.4173 198.773C85.726 195.023 85.6193 191.396 85.0972 187.895L84.6027 187.969ZM84.9189 198.732L84.4208 198.689C84.4208 198.689 84.4211 198.684 84.4238 198.675C84.4266 198.665 84.4327 198.649 84.4452 198.629L84.87 198.892L85.2947 199.156C85.3782 199.022 85.4078 198.882 85.4171 198.775L84.9189 198.732ZM84.87 198.892L84.4453 198.628C84.4714 198.586 84.5209 198.537 84.5989 198.513L84.7466 198.991L84.8942 199.469C85.0731 199.413 85.2091 199.294 85.2946 199.156L84.87 198.892ZM84.7466 198.991L84.5996 198.513C84.6813 198.488 84.7497 198.503 84.7906 198.521L84.589 198.978L84.3873 199.436C84.5311 199.499 84.7111 199.525 84.8935 199.469L84.7466 198.991ZM84.589 198.978L84.7921 198.522C84.8153 198.532 84.8299 198.543 84.8368 198.548C84.8437 198.554 84.8461 198.557 84.845 198.556L84.4582 198.873L84.0714 199.19C84.1372 199.27 84.24 199.37 84.3859 199.435L84.589 198.978ZM84.4582 198.873L84.8465 198.558C82.5213 195.692 80.606 192.703 79.0975 189.593L78.6476 189.811L78.1977 190.029C79.7418 193.213 81.6994 196.266 84.07 199.188L84.4582 198.873ZM78.6476 189.811L79.0975 189.593C78.1699 187.68 77.3943 185.72 76.7741 183.713L76.2964 183.861L75.8187 184.009C76.4542 186.065 77.2485 188.071 78.1977 190.029L78.6476 189.811ZM76.2964 183.861L76.7741 183.713L70.3841 163.04L69.9064 163.187L69.4287 163.335L75.8187 184.009L76.2964 183.861ZM77.4536 163.187L76.9759 163.335L82.7081 181.88L83.1858 181.733L83.6635 181.585L77.9313 163.04L77.4536 163.187ZM69.9064 163.187V163.687H77.4536V163.187V162.687H69.9064V163.187ZM80.6748 121.154L81.0284 121.508L85.8346 116.702L85.4811 116.348L85.1275 115.995L80.3212 120.801L80.6748 121.154ZM44.6277 116.348L44.2742 115.995L39.4679 120.801L39.8215 121.154L40.175 121.508L44.9813 116.702L44.6277 116.348ZM55.4537 116.348V115.848H44.6277V116.348V116.848H55.4537V116.348ZM85.4811 116.348V115.848H62.9866V116.348V116.848H85.4811V116.348ZM62.9866 116.348L62.8299 115.873C61.1853 116.416 60.02 116.61 58.9626 116.578C57.9012 116.547 56.9125 116.289 55.6058 115.872L55.4537 116.348L55.3015 116.824C56.6235 117.247 57.7239 117.542 58.9331 117.578C60.1463 117.614 61.4331 117.387 63.1433 116.823L62.9866 116.348ZM80.6748 162.008V161.508H39.8215V162.008V162.508H80.6748V162.008ZM39.8215 162.008H40.3215V121.154H39.8215H39.3215V162.008H39.8215ZM41.023 160.806V161.306H79.4732V160.806V160.306H41.023V160.806ZM79.4732 160.806H79.9732V122.356H79.4732H78.9732V160.806H79.4732ZM79.4732 122.356V121.856H41.023V122.356V122.856H79.4732V122.356ZM41.023 122.356H40.523V160.806H41.023H41.523V122.356H41.023ZM81.8764 121.652H81.3764V159.107H81.8764H82.3764V121.652H81.8764ZM81.8764 159.107L82.2299 159.461L89.4393 152.251L89.0858 151.898L88.7322 151.544L81.5228 158.753L81.8764 159.107ZM89.0858 151.898H89.5858V114.442H89.0858H88.5858V151.898H89.0858ZM89.0858 114.442L88.7322 114.089L81.5228 121.298L81.8764 121.652L82.2299 122.005L89.4393 114.796L89.0858 114.442ZM42.7221 119.953V120.453H80.1773V119.953V119.453H42.7221V119.953ZM80.1773 119.953L80.5308 120.306L87.7402 113.097L87.3867 112.743L87.0331 112.39L79.8237 119.599L80.1773 119.953ZM87.3867 112.743V112.243H49.9315V112.743V113.243H87.3867V112.743ZM49.9315 112.743L49.578 112.39L42.3686 119.599L42.7221 119.953L43.0757 120.306L50.2851 113.097L49.9315 112.743ZM91.4889 152.893L91.1354 152.539L80.8188 162.856L81.1723 163.209L81.5259 163.563L91.8425 153.246L91.4889 152.893ZM81.1723 163.209V162.709H38.6199V163.209V163.709H81.1723V163.209ZM38.6199 163.209H39.1199V120.657H38.6199H38.1199V163.209H38.6199ZM38.6199 120.657L38.9734 121.01L49.29 110.694L48.9365 110.34L48.5829 109.987L38.2663 120.303L38.6199 120.657ZM48.9365 110.34V110.84H91.4889V110.34V109.84H48.9365V110.34ZM91.4889 110.34H90.9889V152.893H91.4889H91.9889V110.34H91.4889ZM73.4654 134.372H72.9654C72.9654 137.414 70.4994 139.879 67.4575 139.879V140.379V140.879C71.0517 140.879 73.9654 137.966 73.9654 134.372H73.4654ZM67.4575 140.379V139.879C64.4156 139.879 61.9497 137.414 61.9497 134.372H61.4497H60.9497C60.9497 137.966 63.8634 140.879 67.4575 140.879V140.379ZM61.4497 134.372H61.9497C61.9497 131.33 64.4156 128.864 67.4575 128.864V128.364V127.864C63.8634 127.864 60.9497 130.777 60.9497 134.372H61.4497ZM67.4575 128.364V128.864C70.4994 128.864 72.9654 131.33 72.9654 134.372H73.4654H73.9654C73.9654 130.777 71.0517 127.864 67.4575 127.864V128.364ZM59.0466 148.79H58.5466C58.5466 151.832 56.0806 154.298 53.0387 154.298V154.798V155.298C56.6329 155.298 59.5466 152.385 59.5466 148.79H59.0466ZM53.0387 154.798V154.298C49.9968 154.298 47.5309 151.832 47.5309 148.79H47.0309H46.5309C46.5309 152.385 49.4445 155.298 53.0387 155.298V154.798ZM47.0309 148.79H47.5309C47.5309 145.749 49.9968 143.283 53.0387 143.283V142.783V142.283C49.4445 142.283 46.5309 145.196 46.5309 148.79H47.0309ZM53.0387 142.783V143.283C56.0806 143.283 58.5466 145.749 58.5466 148.79H59.0466H59.5466C59.5466 145.196 56.6329 142.283 53.0387 142.283V142.783ZM23.4089 0.543579L23.3106 1.03383C25.9639 1.56546 28.0123 2.26654 29.4799 3.12073C30.9446 3.9732 31.7956 4.95615 32.1323 6.04572L32.61 5.89807L33.0877 5.75042C32.6537 4.3462 31.5854 3.18916 29.9829 2.25645C28.3833 1.32546 26.2165 0.596194 23.5071 0.0533234L23.4089 0.543579ZM32.61 5.89807L32.1322 6.04528C32.323 6.66465 32.1306 7.4833 31.6749 8.50493L32.1315 8.70862L32.5882 8.9123C33.0505 7.87578 33.3962 6.75161 33.0879 5.75087L32.61 5.89807ZM32.1315 8.70862L31.6749 8.50491C31.436 9.04031 31.142 9.59638 30.8353 10.17C30.5317 10.7378 30.2148 11.3243 29.9461 11.8974C29.4241 13.0107 29.0022 14.2307 29.3334 15.3043L29.8112 15.1569L30.289 15.0094C30.082 14.3388 30.3259 13.4428 30.8515 12.322C31.1065 11.7781 31.4089 11.218 31.7171 10.6416C32.0222 10.0709 32.3327 9.48497 32.5881 8.91233L32.1315 8.70862ZM29.8112 15.1569L29.3335 15.3045C30.0915 17.7567 31.2867 20.0659 32.4564 22.3284C33.6335 24.6053 34.785 26.8356 35.5122 29.1883L35.9899 29.0406L36.4676 28.893C35.7097 26.4408 34.5144 24.1316 33.3447 21.8691C32.1676 19.5922 31.0161 17.362 30.2889 15.0092L29.8112 15.1569ZM35.9899 29.0406L35.5122 29.1883L38.9985 40.4695L39.4762 40.3219L39.954 40.1743L36.4676 28.893L35.9899 29.0406ZM39.4762 40.3219L39.5967 40.8072C43.5173 39.8342 47.5561 39.1675 51.6075 38.4479C55.6501 37.7297 59.6993 36.9597 63.5975 35.781L63.4528 35.3024L63.3081 34.8238C59.4716 35.9838 55.4738 36.7454 51.4326 37.4633C47.4 38.1796 43.3179 38.8533 39.3558 39.8366L39.4762 40.3219ZM63.4528 35.3024L63.5975 35.781C64.5913 35.4805 65.5233 35.0222 66.3912 34.4077L66.1022 33.9996L65.8133 33.5916C65.0311 34.1454 64.1961 34.5553 63.3081 34.8238L63.4528 35.3024ZM66.1022 33.9996L66.3912 34.4077C67.3875 33.7021 68.2957 32.7935 69.1174 31.691L68.7165 31.3922L68.3156 31.0934C67.5476 32.124 66.7123 32.9549 65.8133 33.5916L66.1022 33.9996ZM68.7165 31.3922L69.1182 31.6899C69.3644 31.3578 69.6422 31.2183 69.9246 31.1843C70.223 31.1483 70.5755 31.2254 70.9507 31.4194L71.1804 30.9752L71.41 30.5311C70.9155 30.2754 70.3594 30.1246 69.805 30.1914C69.2346 30.2602 68.7153 30.554 68.3148 31.0945L68.7165 31.3922ZM71.1804 30.9752L70.9492 31.4186C71.6845 31.8019 72.3677 32.6269 72.7755 33.6819L73.2419 33.5016L73.7082 33.3213C73.2387 32.1066 72.4185 31.0568 71.4115 30.5318L71.1804 30.9752ZM73.2419 33.5016L72.7755 33.6818C73.1846 34.7403 73.2034 35.7402 72.9022 36.4085L73.3581 36.6139L73.8139 36.8193C74.2615 35.8262 74.1762 34.5322 73.7083 33.3213L73.2419 33.5016ZM73.3581 36.6139L72.9031 36.4066C72.7484 36.7462 72.537 36.9827 72.2904 37.1091C72.0522 37.2312 71.7248 37.2798 71.2704 37.1414L71.1247 37.6198L70.979 38.0981C71.6397 38.2993 72.2409 38.2582 72.7465 37.999C73.2437 37.7441 73.5914 37.3079 73.8131 36.8211L73.3581 36.6139ZM71.1247 37.6198L71.2693 37.1411C69.8656 36.7169 68.5279 36.4917 67.2598 36.4733L67.2526 36.9733L67.2454 37.4732C68.4054 37.49 69.65 37.6965 70.9801 38.0984L71.1247 37.6198ZM67.2526 36.9733L67.2598 36.4733C66.1549 36.4574 65.1034 36.5995 64.1099 36.8999L64.2546 37.3785L64.3993 37.8571C65.2879 37.5884 66.2364 37.4587 67.2454 37.4732L67.2526 36.9733ZM64.2546 37.3785L64.1098 36.8999C60.1392 38.1006 56.3372 39.7209 52.5758 41.3731C48.8064 43.0287 45.0829 44.7137 41.2322 46.068L41.3981 46.5397L41.564 47.0114C45.4593 45.6414 49.2251 43.937 52.9779 42.2886C56.7387 40.6368 60.4919 39.0387 64.3993 37.8571L64.2546 37.3785ZM41.3981 46.5397L40.9204 46.6873L62.4946 116.484L62.9723 116.337L63.45 116.189L41.8758 46.392L41.3981 46.5397ZM62.9723 116.337L62.8051 115.865C61.1873 116.44 60.0528 116.649 59.0064 116.619C57.9544 116.589 56.9521 116.317 55.5832 115.862L55.4255 116.337L55.2677 116.811C56.6485 117.27 57.7693 117.584 58.978 117.619C60.1924 117.653 61.4565 117.405 63.1396 116.808L62.9723 116.337ZM55.4255 116.337L55.9032 116.189L53.1092 107.148L52.6315 107.296L52.1538 107.443L54.9478 116.484L55.4255 116.337ZM52.6315 107.296L53.1092 107.148C47.0566 87.5648 41.0038 67.9818 34.951 48.3989L34.4733 48.5465L33.9956 48.6942C40.0484 68.2771 46.1012 87.8601 52.1538 107.443L52.6315 107.296ZM34.4733 48.5465L34.3592 48.0597C30.5545 48.9513 26.6554 49.5922 22.7487 50.2964C18.8504 50.9992 14.9526 51.7638 11.1919 52.9009L11.3366 53.3795L11.4813 53.8581C15.183 52.7388 19.0323 51.9825 22.9261 51.2806C26.8115 50.5802 30.7496 49.9327 34.5874 49.0333L34.4733 48.5465ZM11.3366 53.3795L11.1918 52.9009C10.262 53.1822 9.39128 53.6113 8.57966 54.1838L8.86785 54.5924L9.15604 55.001C9.88332 54.488 10.6577 54.1073 11.4814 53.8581L11.3366 53.3795ZM8.86785 54.5924L8.57965 54.1838C7.57966 54.8892 6.67277 55.8097 5.85958 56.9389L6.26531 57.2311L6.67104 57.5233C7.4288 56.4711 8.25913 55.6337 9.15605 55.001L8.86785 54.5924ZM6.26531 57.2311L5.85885 56.9399C5.61493 57.2804 5.33963 57.4213 5.06169 57.4564C4.76684 57.4938 4.41609 57.4175 4.04038 57.2227L3.81023 57.6666L3.58008 58.1105C4.07444 58.3668 4.63177 58.5188 5.1872 58.4485C5.75954 58.3761 6.27675 58.0737 6.67178 57.5223L6.26531 57.2311ZM3.81023 57.6666L4.04204 57.2236C3.3061 56.8385 2.61818 56.0069 2.20629 54.9414L1.73992 55.1217L1.27356 55.302C1.74673 56.526 2.57092 57.5825 3.57842 58.1096L3.81023 57.6666ZM1.73992 55.1217L2.2063 54.9414C1.79234 53.8705 1.76969 52.8608 2.07008 52.1917L1.61394 51.9869L1.15781 51.7821C0.710471 52.7785 0.80233 54.0828 1.27355 55.302L1.73992 55.1217ZM1.61394 51.9869L2.06924 52.1936C2.22334 51.8541 2.43444 51.6197 2.68014 51.4963C2.91738 51.3773 3.24626 51.3317 3.7056 51.4787L3.85808 51.0026L4.01057 50.5264C3.34711 50.3139 2.74179 50.3465 2.2316 50.6026C1.72988 50.8544 1.38031 51.2919 1.15865 51.7803L1.61394 51.9869ZM3.85808 51.0026L3.7067 51.4791C5.12077 51.9283 6.46481 52.1659 7.73547 52.1822L7.74187 51.6823L7.74827 51.1823C6.59296 51.1675 5.34733 50.9511 4.00947 50.526L3.85808 51.0026ZM7.74187 51.6823L7.73554 52.1822C8.76741 52.1953 9.75036 52.0619 10.6795 51.781L10.5348 51.3024L10.3901 50.8238C9.56541 51.0731 8.68486 51.1942 7.74821 51.1823L7.74187 51.6823ZM10.5348 51.3024L10.6796 51.781C14.5114 50.6223 18.1885 49.0808 21.8237 47.4944C25.4664 45.9047 29.0595 44.2735 32.7591 42.9133L32.5866 42.444L32.4141 41.9747C28.6786 43.3481 25.0473 44.9965 21.4237 46.5779C17.7925 48.1625 14.1614 49.6834 10.3901 50.8238L10.5348 51.3024ZM32.5866 42.444L33.0643 42.2963C31.903 38.5392 30.7413 34.7782 29.5799 31.0209L29.1022 31.1686L28.6245 31.3162C29.7865 35.0754 30.9469 38.8323 32.1089 42.5916L32.5866 42.444ZM29.1022 31.1686L29.5799 31.0209C28.8528 28.6683 28.5449 26.1778 28.2318 23.6343C27.9206 21.107 27.6043 18.5267 26.8465 16.0747L26.3688 16.2223L25.8911 16.3699C26.6182 18.7225 26.9261 21.2131 27.2393 23.7565C27.5504 26.2839 27.8667 28.8642 28.6245 31.3162L29.1022 31.1686ZM26.3688 16.2223L26.8465 16.0746C26.5145 15.001 25.4776 14.2315 24.4184 13.6067C23.873 13.2851 23.2804 12.9795 22.7092 12.682C22.1322 12.3814 21.5756 12.0881 21.0762 11.7808L20.8141 12.2067L20.5521 12.6325C21.0862 12.9611 21.6732 13.2698 22.2472 13.5688C22.8271 13.8709 23.3928 14.1628 23.9103 14.4681C24.9768 15.0971 25.6838 15.6995 25.8911 16.37L26.3688 16.2223ZM20.8141 12.2067L21.0762 11.7808C20.1233 11.1944 19.503 10.6266 19.3113 10.0071L18.8337 10.1549L18.356 10.3027C18.6657 11.3035 19.5847 12.0372 20.5521 12.6325L20.8141 12.2067ZM18.8337 10.1549L19.3114 10.0073C18.9746 8.91767 19.1225 7.62631 19.8508 6.09638C20.5805 4.56335 21.876 2.82903 23.7666 0.892901L23.4089 0.543579L23.0511 0.194257C21.1206 2.17127 19.7432 3.9957 18.9478 5.6666C18.151 7.34059 17.9219 8.89832 18.356 10.3026L18.8337 10.1549ZM111.044 158.402H111.544V89.4319H111.044H110.544V158.402H111.044ZM111.044 89.4319L110.642 89.1349C110.004 89.9993 109.246 90.8353 108.379 91.637L108.719 92.0041L109.058 92.3711C109.965 91.5318 110.767 90.6495 111.447 89.729L111.044 89.4319ZM108.719 92.0041L108.379 91.637C105.496 94.3045 101.361 96.6759 96.3119 98.6516L96.4941 99.1172L96.6763 99.5829C101.794 97.5804 106.052 95.1524 109.058 92.3711L108.719 92.0041ZM96.4941 99.1172L96.3119 98.6516C86.2095 102.605 72.3011 105.033 56.9737 105.033V105.533V106.033C72.3934 106.033 86.431 103.592 96.6763 99.5829L96.4941 99.1172ZM56.9737 105.533V105.033C41.6464 105.033 27.738 102.605 17.6356 98.6516L17.4534 99.1172L17.2712 99.5829C27.5164 103.592 41.5541 106.033 56.9737 106.033V105.533ZM17.4534 99.1172L17.6356 98.6516C12.5866 96.6759 8.45171 94.3045 5.56838 91.637L5.22883 92.0041L4.88928 92.3711C7.89565 95.1524 12.1537 97.5804 17.2712 99.5829L17.4534 99.1172ZM5.22883 92.0041L5.56839 91.637C2.68441 88.9687 1 85.9504 1 82.7036H0.5H0C0 86.3228 1.88146 89.5882 4.88927 92.3711L5.22883 92.0041ZM0.5 82.7036L1 82.7038C1.00016 82.3162 1.31447 82.0021 1.70157 82.0021V81.5021V81.0021C0.761782 81.0021 0.000383941 81.7643 4.17732e-08 82.7034L0.5 82.7036ZM1.70157 81.5021V82.0021C2.08866 82.0021 2.40298 82.3162 2.40314 82.7038L2.90314 82.7036L3.40314 82.7034C3.40275 81.7643 2.64136 81.0021 1.70157 81.0021V81.5021ZM2.90314 82.7036H2.40314C2.40314 85.4287 3.8127 88.1015 6.52266 90.6086L6.86221 90.2416L7.20176 89.8746C4.61649 87.4828 3.40314 85.0571 3.40314 82.7036H2.90314ZM6.86221 90.2416L6.52269 90.6086C9.23323 93.116 13.194 95.406 18.1465 97.344L18.3287 96.8784L18.5109 96.4128C13.6266 94.5015 9.78916 92.268 7.20174 89.8746L6.86221 90.2416ZM18.3287 96.8784L18.1465 97.344C28.0486 101.219 41.7757 103.63 56.9737 103.63V103.13V102.63C41.8681 102.63 28.2702 100.232 18.5109 96.4128L18.3287 96.8784ZM56.9737 103.13V103.63C72.1717 103.63 85.8988 101.219 95.8009 97.344L95.6187 96.8784L95.4365 96.4128C85.6773 100.232 72.0794 102.63 56.9737 102.63V103.13ZM95.6187 96.8784L95.8009 97.344C100.753 95.406 104.714 93.116 107.425 90.6086L107.085 90.2416L106.746 89.8746C104.158 92.268 100.321 94.5015 95.4365 96.4128L95.6187 96.8784ZM107.085 90.2416L107.425 90.6086C110.135 88.1015 111.544 85.4287 111.544 82.7036H111.044H110.544C110.544 85.0571 109.331 87.4828 106.746 89.8746L107.085 90.2416ZM111.044 82.7036L111.544 82.7036C111.544 78.4578 108.104 74.3316 101.777 70.8347L101.535 71.2723L101.293 71.7099C107.541 75.1634 110.544 79.0315 110.544 82.7037L111.044 82.7036ZM101.535 71.2723L101.777 70.8347C95.494 67.3622 86.5693 64.6355 76.097 63.1151L76.0252 63.61L75.9533 64.1048C86.3519 65.6144 95.1498 68.3145 101.293 71.7099L101.535 71.2723ZM76.0252 63.61L76.0974 63.1152C75.7147 63.0593 75.4481 62.702 75.5038 62.3183L75.009 62.2464L74.5142 62.1746C74.3793 63.1037 75.0232 63.969 75.953 64.1047L76.0252 63.61ZM75.009 62.2464L75.5038 62.3187C75.5596 61.936 75.9169 61.6694 76.3007 61.7251L76.3725 61.2303L76.4443 60.7355C75.5152 60.6006 74.6499 61.2444 74.5142 62.1742L75.009 62.2464ZM76.3725 61.2303L76.3007 61.7251C86.876 63.2605 95.9764 66.0266 102.455 69.6072L102.697 69.1695L102.939 68.7319C96.3208 65.0743 87.0936 62.2816 76.4443 60.7355L76.3725 61.2303ZM102.697 69.1695L102.455 69.6072C108.89 73.1638 112.947 77.6514 112.947 82.7037L113.447 82.7036L113.947 82.7036C113.947 77.0759 109.449 72.3305 102.939 68.7319L102.697 69.1695ZM113.447 82.7036H112.947V158.402H113.447H113.947V82.7036H113.447ZM113.447 158.402H112.947C112.947 158.79 112.633 159.104 112.246 159.104V159.604V160.104C113.186 160.104 113.947 159.342 113.947 158.402H113.447ZM112.246 159.604V159.104C111.858 159.104 111.544 158.79 111.544 158.402H111.044H110.544C110.544 159.342 111.306 160.104 112.246 160.104V159.604Z" fill="#B08A6D" mask="url(#path-1-outside-1_147_191)"/>
</svg>
