<svg width="114" height="218" viewBox="0 0 114 218" fill="none" xmlns="http://www.w3.org/2000/svg">
<path d="M1.70117 108.436C2.50272 108.436 3.15311 109.085 3.15332 109.887V180.031C3.15339 182.478 4.41585 184.965 7.03223 187.386C9.65042 189.808 13.5187 192.055 18.4199 193.973C28.2149 197.805 41.8449 200.208 56.9736 200.208C59.5389 200.208 62.0632 200.139 64.5332 200.006C65.3326 199.963 66.0177 200.576 66.0615 201.376C66.1048 202.177 65.4896 202.861 64.6895 202.904C62.1669 203.041 59.5909 203.111 56.9736 203.111C41.5771 203.111 27.5718 200.673 17.3623 196.678C12.262 194.682 8.0342 192.268 5.05859 189.515C4.35549 188.864 3.71861 188.188 3.15332 187.489V194.45C3.15343 196.896 4.4159 199.384 7.03223 201.805C9.65042 204.226 13.5187 206.474 18.4199 208.392C28.2149 212.224 41.8449 214.627 56.9736 214.627C72.1023 214.627 85.7324 212.224 95.5273 208.392C100.428 206.474 104.297 204.226 106.915 201.805C109.531 199.384 110.794 196.896 110.794 194.45C110.794 193.649 111.444 192.998 112.246 192.998C113.048 192.998 113.697 193.649 113.697 194.45C113.697 197.976 111.865 201.18 108.889 203.934C105.913 206.686 101.685 209.101 96.585 211.097C86.3754 215.091 72.3701 217.529 56.9736 217.529C41.5771 217.529 27.5718 215.091 17.3623 211.097C12.262 209.101 8.0342 206.686 5.05859 203.934C2.08207 201.18 0.250113 197.976 0.25 194.45V109.887C0.250214 109.085 0.899807 108.436 1.70117 108.436Z" fill="#B08A6D" stroke="#271D16" stroke-width="0.5" stroke-linecap="round"/>
<path d="M77.6921 163.113L83.4245 181.659C84.0558 183.702 84.531 185.793 84.85 187.932C85.3691 191.412 85.4749 195.02 85.1677 198.752L85.1683 198.754C85.1612 198.836 85.1387 198.933 85.0823 199.024C85.0247 199.117 84.9351 199.194 84.8205 199.23C84.7041 199.265 84.5855 199.25 84.4879 199.207L84.4871 199.206C84.438 199.184 84.395 199.156 84.3581 199.126L84.2645 199.031C81.9053 196.123 79.9577 193.086 78.4225 189.92C77.4787 187.973 76.6889 185.978 76.0572 183.934L69.6671 163.261L69.5675 162.938L69.9063 162.937L77.4538 162.937L77.6375 162.937L77.6921 163.113Z" fill="#B08A6D" stroke="#271D16" stroke-width="0.5" stroke-linecap="round"/>
<path d="M91.739 110.09V152.996L81.2761 163.459H38.3699V120.553L48.8328 110.09H91.739ZM41.2732 160.556H79.2234V122.606H41.2732V160.556ZM82.1267 121.755V158.503L88.8357 151.794V115.046L82.1267 121.755ZM43.3259 119.703H80.074L86.783 112.994H50.0349L43.3259 119.703Z" fill="#B08A6D" stroke="#271D16" stroke-width="0.5"/>
<path d="M67.4575 128.114C70.9136 128.114 73.7153 130.915 73.7153 134.372C73.7153 137.828 70.9136 140.629 67.4575 140.629C64.0014 140.629 61.1997 137.828 61.1997 134.372C61.1997 130.915 64.0014 128.114 67.4575 128.114Z" fill="#B08A6D" stroke="#271D16" stroke-width="0.5"/>
<path d="M53.0387 142.533C56.4948 142.533 59.2965 145.334 59.2965 148.79C59.2965 152.247 56.4948 155.048 53.0387 155.048C49.5826 155.048 46.7809 152.247 46.7809 148.79C46.7809 145.334 49.5826 142.533 53.0387 142.533Z" fill="#B08A6D" stroke="#271D16" stroke-width="0.5"/>
<mask id="path-6-outside-1_97_193" maskUnits="userSpaceOnUse" x="0.366943" y="-0.456421" width="74" height="119" fill="black">
<rect fill="white" x="0.366943" y="-0.456421" width="74" height="119"/>
<path d="M23.4089 0.543579C28.7716 1.61808 31.8393 3.40428 32.6101 5.89807C32.8597 6.70813 32.5906 7.67954 32.1316 8.70862C31.1429 10.9247 29.2731 13.4127 29.8113 15.1569C31.2965 19.9618 34.5048 24.2357 35.99 29.0406L39.4763 40.3219C47.359 38.3656 55.7181 37.6411 63.4529 35.3024C64.3938 35.0179 65.2773 34.5838 66.1023 33.9996C67.05 33.3285 67.9217 32.4587 68.7166 31.3922C69.3633 30.5196 70.3108 30.5256 71.1804 30.9752C72.0516 31.4293 72.8032 32.3668 73.2419 33.5016C73.6805 34.6363 73.7325 35.7832 73.3582 36.6139C72.9818 37.4402 72.2399 37.9594 71.1248 37.6198C69.7579 37.2067 68.4667 36.9908 67.2527 36.9733C66.1957 36.958 65.1957 37.094 64.2546 37.3785C56.3766 39.7608 49.1442 43.8154 41.3982 46.5397L62.9724 116.337C59.6716 117.508 58.1752 117.251 55.4255 116.337L52.6316 107.296C46.579 87.7125 40.5262 68.1295 34.4734 48.5465C26.8309 50.3375 18.7991 51.1231 11.3367 53.3795C10.4599 53.6447 9.63737 54.0497 8.86792 54.5924C7.91946 55.2614 7.05086 56.1404 6.26538 57.2311C5.62644 58.123 4.68037 58.1178 3.8103 57.6666C2.93858 57.2105 2.18252 56.2664 1.73999 55.1217C1.29741 53.9767 1.24015 52.8197 1.61401 51.9869C1.98977 51.1591 2.73535 50.643 3.85815 51.0026C5.23412 51.4397 6.52895 51.6667 7.74194 51.6823C8.72621 51.6947 9.65796 51.5675 10.5349 51.3024C18.1379 49.0033 25.1515 45.1776 32.5867 42.444C31.4251 38.6857 30.2639 34.9268 29.1023 31.1686C27.6174 26.3639 27.8538 21.0269 26.3689 16.2223C25.8296 14.4783 22.8812 13.4785 20.8142 12.2067C19.8541 11.6158 19.0844 10.965 18.8337 10.1549C18.0629 7.66109 19.5878 4.45672 23.4089 0.543579Z"/>
</mask>
<path d="M23.4089 0.543579C28.7716 1.61808 31.8393 3.40428 32.6101 5.89807C32.8597 6.70813 32.5906 7.67954 32.1316 8.70862C31.1429 10.9247 29.2731 13.4127 29.8113 15.1569C31.2965 19.9618 34.5048 24.2357 35.99 29.0406L39.4763 40.3219C47.359 38.3656 55.7181 37.6411 63.4529 35.3024C64.3938 35.0179 65.2773 34.5838 66.1023 33.9996C67.05 33.3285 67.9217 32.4587 68.7166 31.3922C69.3633 30.5196 70.3108 30.5256 71.1804 30.9752C72.0516 31.4293 72.8032 32.3668 73.2419 33.5016C73.6805 34.6363 73.7325 35.7832 73.3582 36.6139C72.9818 37.4402 72.2399 37.9594 71.1248 37.6198C69.7579 37.2067 68.4667 36.9908 67.2527 36.9733C66.1957 36.958 65.1957 37.094 64.2546 37.3785C56.3766 39.7608 49.1442 43.8154 41.3982 46.5397L62.9724 116.337C59.6716 117.508 58.1752 117.251 55.4255 116.337L52.6316 107.296C46.579 87.7125 40.5262 68.1295 34.4734 48.5465C26.8309 50.3375 18.7991 51.1231 11.3367 53.3795C10.4599 53.6447 9.63737 54.0497 8.86792 54.5924C7.91946 55.2614 7.05086 56.1404 6.26538 57.2311C5.62644 58.123 4.68037 58.1178 3.8103 57.6666C2.93858 57.2105 2.18252 56.2664 1.73999 55.1217C1.29741 53.9767 1.24015 52.8197 1.61401 51.9869C1.98977 51.1591 2.73535 50.643 3.85815 51.0026C5.23412 51.4397 6.52895 51.6667 7.74194 51.6823C8.72621 51.6947 9.65796 51.5675 10.5349 51.3024C18.1379 49.0033 25.1515 45.1776 32.5867 42.444C31.4251 38.6857 30.2639 34.9268 29.1023 31.1686C27.6174 26.3639 27.8538 21.0269 26.3689 16.2223C25.8296 14.4783 22.8812 13.4785 20.8142 12.2067C19.8541 11.6158 19.0844 10.965 18.8337 10.1549C18.0629 7.66109 19.5878 4.45672 23.4089 0.543579Z" fill="#B08A6D"/>
<path d="M23.4089 0.543579L23.5072 0.0533234L23.2409 -2.49752e-05L23.0512 0.194257L23.4089 0.543579ZM32.6101 5.89807L33.0879 5.75087L33.0878 5.75042L32.6101 5.89807ZM32.1316 8.70862L32.5882 8.91233L32.5882 8.9123L32.1316 8.70862ZM29.8113 15.1569L29.3335 15.3043L29.3336 15.3045L29.8113 15.1569ZM35.99 29.0406L36.4677 28.893L36.4677 28.893L35.99 29.0406ZM39.4763 40.3219L38.9986 40.4695L39.1381 40.921L39.5968 40.8072L39.4763 40.3219ZM63.4529 35.3024L63.5976 35.781L63.5976 35.781L63.4529 35.3024ZM66.1023 33.9996L66.3912 34.4077L66.3913 34.4077L66.1023 33.9996ZM68.7166 31.3922L69.1175 31.691L69.1183 31.6899L68.7166 31.3922ZM71.1804 30.9752L71.4115 30.5318L71.4101 30.5311L71.1804 30.9752ZM73.2419 33.5016L73.7083 33.3213L73.7083 33.3213L73.2419 33.5016ZM73.3582 36.6139L73.8132 36.8211L73.814 36.8193L73.3582 36.6139ZM71.1248 37.6198L71.2704 37.1414L71.2694 37.1411L71.1248 37.6198ZM67.2527 36.9733L67.2599 36.4733L67.2599 36.4733L67.2527 36.9733ZM64.2546 37.3785L64.1099 36.8999L64.1099 36.8999L64.2546 37.3785ZM41.3982 46.5397L41.2323 46.068L40.7784 46.2276L40.9205 46.6873L41.3982 46.5397ZM62.9724 116.337L63.1397 116.808L63.5918 116.647L63.4501 116.189L62.9724 116.337ZM55.4255 116.337L54.9478 116.484L55.0238 116.73L55.2678 116.811L55.4255 116.337ZM52.6316 107.296L53.1093 107.148L53.1093 107.148L52.6316 107.296ZM34.4734 48.5465L34.9511 48.3989L34.8134 47.9533L34.3593 48.0597L34.4734 48.5465ZM11.3367 53.3795L11.192 52.9009L11.1919 52.9009L11.3367 53.3795ZM8.86792 54.5924L8.57973 54.1838L8.57972 54.1838L8.86792 54.5924ZM6.26538 57.2311L5.85965 56.9389L5.85892 56.9399L6.26538 57.2311ZM3.8103 57.6666L3.57849 58.1096L3.58015 58.1105L3.8103 57.6666ZM1.73999 55.1217L1.27362 55.302L1.27363 55.302L1.73999 55.1217ZM1.61401 51.9869L1.15871 51.7803L1.15788 51.7821L1.61401 51.9869ZM3.85815 51.0026L3.70567 51.4787L3.70677 51.4791L3.85815 51.0026ZM7.74194 51.6823L7.73554 52.1822L7.7356 52.1822L7.74194 51.6823ZM10.5349 51.3024L10.6796 51.781L10.6796 51.781L10.5349 51.3024ZM32.5867 42.444L32.7592 42.9133L33.2045 42.7496L33.0644 42.2963L32.5867 42.444ZM29.1023 31.1686L28.6246 31.3162L28.6246 31.3162L29.1023 31.1686ZM26.3689 16.2223L26.8466 16.0747L26.8466 16.0746L26.3689 16.2223ZM20.8142 12.2067L20.5522 12.6325L20.5522 12.6325L20.8142 12.2067ZM18.8337 10.1549L18.356 10.3026L18.3561 10.3027L18.8337 10.1549ZM23.4089 0.543579L23.3107 1.03383C25.964 1.56546 28.0123 2.26654 29.48 3.12073C30.9446 3.9732 31.7956 4.95615 32.1324 6.04572L32.6101 5.89807L33.0878 5.75042C32.6538 4.3462 31.5855 3.18916 29.983 2.25645C28.3834 1.32546 26.2165 0.596194 23.5072 0.0533234L23.4089 0.543579ZM32.6101 5.89807L32.1323 6.04528C32.3231 6.66465 32.1307 7.4833 31.675 8.50493L32.1316 8.70862L32.5882 8.9123C33.0506 7.87578 33.3962 6.75161 33.0879 5.75087L32.6101 5.89807ZM32.1316 8.70862L31.675 8.50491C31.4361 9.04031 31.1421 9.59638 30.8353 10.17C30.5317 10.7378 30.2149 11.3243 29.9462 11.8974C29.4242 13.0107 29.0022 14.2307 29.3335 15.3043L29.8113 15.1569L30.289 15.0094C30.0821 14.3388 30.326 13.4428 30.8516 12.322C31.1066 11.7781 31.409 11.218 31.7172 10.6416C32.0223 10.0709 32.3327 9.48497 32.5882 8.91233L32.1316 8.70862ZM29.8113 15.1569L29.3336 15.3045C30.0915 17.7567 31.2868 20.0659 32.4565 22.3284C33.6336 24.6053 34.7851 26.8356 35.5123 29.1883L35.99 29.0406L36.4677 28.893C35.7097 26.4408 34.5144 24.1316 33.3448 21.8691C32.1677 19.5922 31.0162 17.362 30.289 15.0092L29.8113 15.1569ZM35.99 29.0406L35.5123 29.1883L38.9986 40.4695L39.4763 40.3219L39.954 40.1743L36.4677 28.893L35.99 29.0406ZM39.4763 40.3219L39.5968 40.8072C43.5174 39.8342 47.5562 39.1675 51.6075 38.4479C55.6502 37.7297 59.6993 36.9597 63.5976 35.781L63.4529 35.3024L63.3082 34.8238C59.4717 35.9838 55.4739 36.7454 51.4326 37.4633C47.4 38.1796 43.318 38.8533 39.3559 39.8366L39.4763 40.3219ZM63.4529 35.3024L63.5976 35.781C64.5913 35.4805 65.5234 35.0222 66.3912 34.4077L66.1023 33.9996L65.8134 33.5916C65.0312 34.1454 64.1962 34.5553 63.3082 34.8238L63.4529 35.3024ZM66.1023 33.9996L66.3913 34.4077C67.3875 33.7021 68.2958 32.7935 69.1175 31.691L68.7166 31.3922L68.3156 31.0934C67.5476 32.124 66.7124 32.9549 65.8133 33.5916L66.1023 33.9996ZM68.7166 31.3922L69.1183 31.6899C69.3644 31.3578 69.6422 31.2183 69.9247 31.1843C70.2231 31.1483 70.5756 31.2254 70.9508 31.4194L71.1804 30.9752L71.4101 30.5311C70.9156 30.2754 70.3595 30.1246 69.8051 30.1914C69.2347 30.2602 68.7154 30.554 68.3148 31.0945L68.7166 31.3922ZM71.1804 30.9752L70.9493 31.4186C71.6846 31.8019 72.3677 32.6269 72.7756 33.6819L73.2419 33.5016L73.7083 33.3213C73.2387 32.1066 72.4186 31.0568 71.4115 30.5318L71.1804 30.9752ZM73.2419 33.5016L72.7756 33.6818C73.1846 34.7403 73.2035 35.7402 72.9023 36.4085L73.3582 36.6139L73.814 36.8193C74.2616 35.8262 74.1763 34.5322 73.7083 33.3213L73.2419 33.5016ZM73.3582 36.6139L72.9031 36.4066C72.7485 36.7462 72.5371 36.9827 72.2904 37.1091C72.0523 37.2312 71.7249 37.2798 71.2704 37.1414L71.1248 37.6198L70.9791 38.0981C71.6398 38.2993 72.2409 38.2582 72.7466 37.999C73.2438 37.7441 73.5915 37.3079 73.8132 36.8211L73.3582 36.6139ZM71.1248 37.6198L71.2694 37.1411C69.8656 36.7169 68.5279 36.4917 67.2599 36.4733L67.2527 36.9733L67.2455 37.4732C68.4055 37.49 69.6501 37.6965 70.9801 38.0984L71.1248 37.6198ZM67.2527 36.9733L67.2599 36.4733C66.1549 36.4574 65.1035 36.5995 64.1099 36.8999L64.2546 37.3785L64.3994 37.8571C65.288 37.5884 66.2365 37.4587 67.2455 37.4732L67.2527 36.9733ZM64.2546 37.3785L64.1099 36.8999C60.1393 38.1006 56.3373 39.7209 52.5758 41.3731C48.8065 43.0287 45.083 44.7137 41.2323 46.068L41.3982 46.5397L41.5641 47.0114C45.4594 45.6414 49.2251 43.937 52.978 42.2886C56.7387 40.6368 60.492 39.0387 64.3994 37.8571L64.2546 37.3785ZM41.3982 46.5397L40.9205 46.6873L62.4947 116.484L62.9724 116.337L63.4501 116.189L41.8759 46.392L41.3982 46.5397ZM62.9724 116.337L62.8051 115.865C61.1874 116.44 60.0529 116.649 59.0065 116.619C57.9544 116.589 56.9522 116.317 55.5833 115.862L55.4255 116.337L55.2678 116.811C56.6485 117.27 57.7693 117.584 58.9781 117.619C60.1925 117.653 61.4566 117.405 63.1397 116.808L62.9724 116.337ZM55.4255 116.337L55.9032 116.189L53.1093 107.148L52.6316 107.296L52.1539 107.443L54.9478 116.484L55.4255 116.337ZM52.6316 107.296L53.1093 107.148C47.0567 87.5648 41.0039 67.9818 34.9511 48.3989L34.4734 48.5465L33.9957 48.6942C40.0484 68.2771 46.1013 87.8601 52.1539 107.443L52.6316 107.296ZM34.4734 48.5465L34.3593 48.0597C30.5545 48.9513 26.6555 49.5922 22.7488 50.2964C18.8504 50.9992 14.9527 51.7638 11.192 52.9009L11.3367 53.3795L11.4814 53.8581C15.1831 52.7388 19.0324 51.9825 22.9262 51.2806C26.8116 50.5802 30.7497 49.9327 34.5875 49.0333L34.4734 48.5465ZM11.3367 53.3795L11.1919 52.9009C10.2621 53.1822 9.39135 53.6113 8.57973 54.1838L8.86792 54.5924L9.15611 55.001C9.88339 54.488 10.6578 54.1073 11.4814 53.8581L11.3367 53.3795ZM8.86792 54.5924L8.57972 54.1838C7.57973 54.8892 6.67284 55.8097 5.85965 56.9389L6.26538 57.2311L6.67111 57.5233C7.42887 56.4711 8.2592 55.6337 9.15612 55.001L8.86792 54.5924ZM6.26538 57.2311L5.85892 56.9399C5.615 57.2804 5.3397 57.4213 5.06176 57.4564C4.76691 57.4938 4.41616 57.4175 4.04045 57.2227L3.8103 57.6666L3.58015 58.1105C4.07451 58.3668 4.63184 58.5188 5.18727 58.4485C5.75961 58.3761 6.27682 58.0737 6.67185 57.5223L6.26538 57.2311ZM3.8103 57.6666L4.04211 57.2236C3.30617 56.8385 2.61825 56.0069 2.20636 54.9414L1.73999 55.1217L1.27363 55.302C1.7468 56.526 2.57099 57.5825 3.57849 58.1096L3.8103 57.6666ZM1.73999 55.1217L2.20636 54.9414C1.79241 53.8705 1.76976 52.8608 2.07015 52.1917L1.61401 51.9869L1.15788 51.7821C0.710541 52.7785 0.802399 54.0828 1.27362 55.302L1.73999 55.1217ZM1.61401 51.9869L2.06931 52.1936C2.22341 51.8541 2.43451 51.6197 2.68021 51.4963C2.91745 51.3773 3.24632 51.3317 3.70567 51.4787L3.85815 51.0026L4.01064 50.5264C3.34718 50.3139 2.74186 50.3465 2.23167 50.6026C1.72995 50.8544 1.38038 51.2919 1.15872 51.7803L1.61401 51.9869ZM3.85815 51.0026L3.70677 51.4791C5.12084 51.9283 6.46488 52.1659 7.73554 52.1822L7.74194 51.6823L7.74834 51.1823C6.59303 51.1675 5.3474 50.9511 4.00954 50.526L3.85815 51.0026ZM7.74194 51.6823L7.7356 52.1822C8.76748 52.1953 9.75043 52.0619 10.6796 51.781L10.5349 51.3024L10.3902 50.8238C9.56548 51.0731 8.68493 51.1942 7.74828 51.1823L7.74194 51.6823ZM10.5349 51.3024L10.6796 51.781C14.5114 50.6223 18.1886 49.0808 21.8237 47.4944C25.4665 45.9047 29.0596 44.2735 32.7592 42.9133L32.5867 42.444L32.4141 41.9747C28.6786 43.3481 25.0474 44.9965 21.4238 46.5779C17.7925 48.1625 14.1614 49.6834 10.3902 50.8238L10.5349 51.3024ZM32.5867 42.444L33.0644 42.2963C31.9031 38.5392 30.7413 34.7782 29.58 31.0209L29.1023 31.1686L28.6246 31.3162C29.7865 35.0754 30.947 38.8323 32.109 42.5916L32.5867 42.444ZM29.1023 31.1686L29.58 31.0209C28.8529 28.6683 28.5449 26.1778 28.2318 23.6343C27.9207 21.107 27.6044 18.5267 26.8466 16.0747L26.3689 16.2223L25.8912 16.3699C26.6183 18.7225 26.9262 21.2131 27.2393 23.7565C27.5505 26.2839 27.8668 28.8642 28.6246 31.3162L29.1023 31.1686ZM26.3689 16.2223L26.8466 16.0746C26.5146 15.001 25.4777 14.2315 24.4184 13.6067C23.8731 13.2851 23.2805 12.9795 22.7093 12.682C22.1323 12.3814 21.5756 12.0881 21.0762 11.7808L20.8142 12.2067L20.5522 12.6325C21.0863 12.9611 21.6733 13.2698 22.2473 13.5688C22.8271 13.8709 23.3929 14.1628 23.9104 14.4681C24.9769 15.0971 25.6839 15.6995 25.8912 16.37L26.3689 16.2223ZM20.8142 12.2067L21.0763 11.7808C20.1234 11.1944 19.5031 10.6266 19.3114 10.0071L18.8337 10.1549L18.3561 10.3027C18.6657 11.3035 19.5848 12.0372 20.5522 12.6325L20.8142 12.2067ZM18.8337 10.1549L19.3114 10.0073C18.9747 8.91767 19.1226 7.62631 19.8508 6.09638C20.5805 4.56335 21.8761 2.82903 23.7667 0.892901L23.4089 0.543579L23.0512 0.194257C21.1207 2.17127 19.7432 3.9957 18.9479 5.6666C18.1511 7.34059 17.922 8.89832 18.356 10.3026L18.8337 10.1549Z" fill="#271D16" mask="url(#path-6-outside-1_97_193)"/>
<path d="M76.4082 60.9833C87.0389 62.5267 96.2344 65.3127 102.817 68.951C109.309 72.5391 113.697 77.2201 113.697 82.704V158.402C113.697 159.204 113.048 159.854 112.246 159.854C111.444 159.854 110.794 159.204 110.794 158.402V90.162C110.229 90.8603 109.592 91.5368 108.889 92.1874C105.913 94.9403 101.685 97.3547 96.585 99.3505C86.3755 103.345 72.3701 105.783 56.9736 105.783C41.5772 105.783 27.5718 103.345 17.3623 99.3505C12.262 97.3547 8.0342 94.9403 5.05859 92.1874C2.08203 89.4333 0.250128 86.2298 0.25 82.704L0.257812 82.5555C0.332214 81.8238 0.949719 81.252 1.70117 81.2518C2.50279 81.2518 3.15299 81.9027 3.15332 82.704C3.15345 85.1503 4.41591 87.638 7.03223 90.0585C9.65042 92.4802 13.5188 94.7275 18.4199 96.6454C28.2149 100.478 41.845 102.881 56.9736 102.881C72.1023 102.881 85.7324 100.478 95.5273 96.6454C100.428 94.7276 104.297 92.4802 106.915 90.0585C109.531 87.638 110.794 85.1503 110.794 82.704C110.794 78.8884 107.682 74.9555 101.414 71.4911C95.2358 68.0764 86.4063 65.3697 75.9893 63.8573C75.1963 63.7416 74.6468 63.0035 74.7617 62.2108C74.8774 61.4178 75.6155 60.8683 76.4082 60.9833Z" fill="#B08A6D" stroke="#271D16" stroke-width="0.5"/>
</svg>
