<svg width="27" height="41" viewBox="0 0 27 41" fill="none" xmlns="http://www.w3.org/2000/svg">
<path d="M3.47949 13.2082C3.36845 12.6673 2.83978 12.3189 2.29883 12.4298C1.75798 12.5409 1.40958 13.0696 1.52051 13.6105L6.41602 37.4816L6.43164 37.5588L6.45898 37.632C6.87411 38.7377 7.84217 39.5803 9.07715 40.1339C10.3216 40.6919 11.9227 41.0002 13.791 41.0002C15.6581 41.0001 17.3959 40.6804 18.7041 40.1242C19.3564 39.8468 19.9488 39.4903 20.3926 39.0441C20.8403 38.5939 21.1865 37.9967 21.1865 37.2804C21.1863 36.7285 20.7385 36.2807 20.1865 36.2804C19.6344 36.2804 19.1867 36.7283 19.1865 37.2804C19.1865 37.3149 19.1739 37.4336 18.9746 37.6339C18.7712 37.8384 18.4268 38.0686 17.9219 38.2834C16.9156 38.7112 15.4556 39.0001 13.791 39.0002C12.1273 39.0002 10.8204 38.7234 9.89551 38.3088C8.99801 37.9064 8.53789 37.4114 8.35547 36.9806L8.09863 35.7277C8.12644 35.7406 8.15355 35.7551 8.18164 35.7677C9.42611 36.3257 11.0271 36.6339 12.8955 36.6339C13.8821 36.6339 14.8262 36.5453 15.6865 36.382C16.229 36.279 16.5852 35.7555 16.4824 35.2131C16.3794 34.6705 15.856 34.3132 15.3135 34.4162C14.5827 34.5549 13.7639 34.6339 12.8955 34.6339C11.2318 34.6339 9.92484 34.3572 9 33.9425C8.10192 33.5399 7.64207 33.0444 7.45996 32.6134L3.47949 13.2082ZM18.0068 0.0109009C17.4606 -0.0699247 16.952 0.307427 16.8711 0.853674C16.7902 1.39995 17.1676 1.90847 17.7139 1.98942C20.0154 2.33048 21.9224 2.93427 23.2227 3.66617C24.5803 4.43042 25 5.16195 25 5.6652C24.9999 5.98679 24.8399 6.39521 24.332 6.87321C23.8221 7.35313 23.0304 7.83146 21.9688 8.25406C19.8512 9.09699 16.8576 9.64078 13.5 9.64078C10.1424 9.64078 7.14878 9.09699 5.03125 8.25406C3.96964 7.83146 3.17789 7.35313 2.66797 6.87321C2.16012 6.39521 2.00006 5.98679 2 5.6652C2 5.11291 1.55228 4.6652 1 4.6652C0.447716 4.6652 0 5.11291 0 5.6652C6.67572e-05 6.71755 0.539865 7.61777 1.29688 8.33024C2.05195 9.04087 3.09072 9.63462 4.29102 10.1125C6.69759 11.0705 9.95407 11.6408 13.5 11.6408C17.0459 11.6408 20.3024 11.0705 22.709 10.1125C23.3704 9.84916 23.9816 9.54889 24.5244 9.215L22.0088 27.965C21.9356 28.5122 22.3199 29.0156 22.8672 29.089C23.4145 29.1623 23.9177 28.7779 23.9912 28.2306L26.9307 6.30387C26.9748 6.09772 27 5.88495 27 5.6652C27 4.03084 25.7268 2.78163 24.2031 1.92399C22.622 1.03398 20.4587 0.374241 18.0068 0.0109009Z" fill="#B08A6D"/>
</svg>
