<svg width="52" height="123" viewBox="0 0 52 123" fill="none" xmlns="http://www.w3.org/2000/svg">
<path d="M2.94337 25.0303C2.40275 24.9174 1.87268 25.2641 1.75978 25.8047C1.63536 26.401 1.67 27.3979 1.76759 28.5479C1.86969 29.751 2.05715 31.2743 2.30665 33.0166C2.80607 36.5041 3.56136 40.9163 4.40821 45.4932C6.10111 54.6424 8.16923 64.5055 9.30372 69.043C12.7849 82.9667 10.7403 95.281 8.56544 103.906C8.42897 104.447 8.27407 105.042 8.11036 105.664C7.62468 107.509 7.05564 109.584 6.60743 111.2C6.38343 112.008 6.19031 112.7 6.05275 113.19C5.98403 113.435 5.92916 113.63 5.89161 113.763C5.8729 113.829 5.85841 113.88 5.84864 113.915C5.84381 113.932 5.83941 113.945 5.83693 113.954C5.83569 113.958 5.83559 113.963 5.83497 113.965L5.834 113.967C5.80891 114.055 5.79591 114.148 5.79591 114.24C5.79598 115.67 6.51402 116.935 7.60646 117.982C8.6962 119.028 10.2205 119.923 12.0215 120.653C15.629 122.117 20.5443 123 25.9219 123C31.2996 123 36.2147 122.117 39.8223 120.653C41.6233 119.923 43.1475 119.028 44.2373 117.982C45.3298 116.935 46.0488 115.67 46.0488 114.24C46.0488 113.688 45.601 113.24 45.0488 113.24C44.4966 113.24 44.0488 113.688 44.0488 114.24C44.0488 114.953 43.6966 115.73 42.8535 116.539C42.0077 117.35 40.7303 118.127 39.0703 118.801C35.7556 120.146 31.1071 121 25.9219 121C20.7366 121 16.0882 120.146 12.7734 118.801C11.1137 118.127 9.83705 117.35 8.99122 116.539C8.19712 115.777 7.83888 115.044 7.79982 114.365C7.80496 114.347 7.81038 114.327 7.81642 114.306C7.85416 114.172 7.90953 113.976 7.97853 113.73C8.11652 113.239 8.31058 112.545 8.53517 111.735C8.87846 110.498 9.29066 108.987 9.68556 107.515C13.3646 109.669 19.3292 111 25.9219 111C28.4734 111 30.9158 110.801 33.1602 110.438C33.7051 110.35 34.0753 109.837 33.9873 109.292C33.8992 108.747 33.3859 108.376 32.8408 108.464C30.7067 108.809 28.3713 109 25.9219 109C19.1421 109 13.3565 107.54 10.2207 105.496C10.3203 105.113 10.4161 104.744 10.5039 104.396C12.716 95.6226 14.8387 82.9381 11.2432 68.5576C10.1235 64.0794 8.06512 54.2631 6.37501 45.1289C5.53035 40.564 4.78005 36.1824 4.28614 32.7334C4.03904 31.0079 3.85821 29.5272 3.76075 28.3789C3.6588 27.1775 3.66307 26.4749 3.71778 26.2129C3.8305 25.6725 3.48373 25.1433 2.94337 25.0303ZM34.7617 0.0107433C34.2154 -0.0694773 33.7073 0.308213 33.627 0.854493C33.5467 1.40089 33.9243 1.90898 34.4707 1.98926C39.1292 2.67328 43.056 3.93013 45.7871 5.48926C48.5782 7.08261 49.8418 8.81677 49.8418 10.3652C49.8417 11.3518 49.3397 12.3877 48.2061 13.4326C47.0697 14.4799 45.3698 15.4642 43.1836 16.3086C38.8171 17.9951 32.7147 19.0459 25.9219 19.0459C19.1331 19.0459 13.0324 17.9586 8.66603 16.2363C6.48009 15.374 4.7788 14.372 3.64064 13.3105C2.50401 12.2505 2.00003 11.2042 2.00001 10.2158C2.00001 9.66354 1.5523 9.21582 1.00001 9.21582C0.447727 9.21582 1.14441e-05 9.66354 1.14441e-05 10.2158C3.05176e-05 11.9419 0.89093 13.4814 2.27638 14.7734C3.66039 16.0641 5.60878 17.181 7.93263 18.0977C12.5862 19.9332 18.9468 21.0459 25.9219 21.0459C32.8933 21.0459 39.2521 19.9716 43.9043 18.1748C46.2272 17.2776 48.1762 16.1801 49.5615 14.9033C49.6992 14.7764 49.8305 14.6455 49.958 14.5137C50.1416 22.9803 49.9426 42.6019 43.5059 64.7305C42.2187 69.1554 41.78 73.9829 41.6582 77.6768C41.5972 79.5293 41.6157 81.1092 41.6494 82.2275C41.6663 82.7869 41.6865 83.2319 41.7031 83.5381C41.7114 83.691 41.7194 83.8097 41.7246 83.8906C41.7272 83.931 41.729 83.962 41.7305 83.9834C41.7312 83.9939 41.732 84.002 41.7324 84.0078C41.7326 84.0105 41.7323 84.013 41.7324 84.0146L41.7334 84.0166V84.0186C41.7749 84.569 42.2542 84.9815 42.8047 84.9404C43.3553 84.8992 43.7686 84.4198 43.7275 83.8691V83.8633C43.7272 83.8591 43.7262 83.8525 43.7256 83.8438C43.7243 83.8256 43.7221 83.7978 43.7197 83.7607C43.7149 83.6866 43.7081 83.5752 43.7002 83.4297C43.6844 83.1382 43.6648 82.7091 43.6484 82.167C43.6158 81.0826 43.5978 79.5458 43.6572 77.7432C43.7765 74.1257 44.2061 69.4854 45.4268 65.2891C53.592 37.2182 51.8449 13.0974 51.8418 10.3643C51.8415 7.68996 49.7305 5.43724 46.7783 3.75195C43.7661 2.03243 39.5802 0.718303 34.7617 0.0107433Z" fill="#B08A6D"/>
</svg>
