<svg width="52" height="69" viewBox="0 0 52 69" fill="none" xmlns="http://www.w3.org/2000/svg">
<path d="M15.4267 34.4132C14.9063 34.2289 14.3348 34.5021 14.1504 35.0226C13.9662 35.543 14.2384 36.1145 14.7588 36.299C19.2533 37.8919 21.4676 41.6753 22.0459 45.756C22.6317 49.8903 21.5006 54.1004 19.5664 56.3009C17.3561 58.8153 15.7466 59.604 14.6435 60.0519C14.4978 60.1111 14.3583 60.1652 14.2197 60.2189C14.0837 60.2716 13.9441 60.325 13.8115 60.379C13.5496 60.4858 13.2668 60.6125 13.0029 60.7814C12.4059 61.1633 12.0059 61.7014 11.8017 62.5089C11.5302 63.5834 12.0831 64.5435 12.7715 65.2433C13.4801 65.9635 14.5123 66.6092 15.7139 67.1495C18.1292 68.2357 21.463 69.0001 24.9619 69.0001C28.4308 69.0001 31.6193 68.3968 33.9775 67.382C35.1546 66.8754 36.1708 66.2464 36.9072 65.4972C37.6481 64.7434 38.1523 63.815 38.1523 62.754C38.1523 62.2018 37.7046 61.754 37.1523 61.754C36.6001 61.754 36.1523 62.2018 36.1523 62.754C36.1523 63.1416 35.9741 63.5936 35.4814 64.0949C34.9842 64.6008 34.2152 65.1024 33.1865 65.5451C31.1327 66.4289 28.2255 67.0001 24.9619 67.0001C21.7281 67.0001 18.676 66.2885 16.5342 65.3253C15.4573 64.841 14.668 64.3185 14.1973 63.84C13.707 63.3416 13.7218 63.0725 13.7402 62.9992C13.8262 62.6592 13.9343 62.5598 14.081 62.466C14.1889 62.397 14.3366 62.3253 14.5664 62.2316C14.6797 62.1854 14.8015 62.1377 14.9424 62.0831C15.0805 62.0296 15.234 61.9704 15.3965 61.9044C16.7605 61.3506 18.6346 60.3898 21.0683 57.6212C23.4803 54.8773 24.6711 50.0333 24.0254 45.4757C23.372 40.8646 20.8007 36.3178 15.4267 34.4132ZM34.8154 0.0108709C34.2692 -0.0698254 33.7605 0.307437 33.6797 0.853644C33.5989 1.4 33.9771 1.90865 34.5234 1.98939C39.1943 2.67969 43.1295 3.9103 45.8662 5.44642C48.6611 7.01536 49.9238 8.72854 49.9238 10.2902C49.9238 11.292 49.416 12.3494 48.2773 13.4181C47.1369 14.4885 45.4325 15.4991 43.2432 16.3683C38.8703 18.1042 32.7608 19.2003 25.9619 19.2003C19.1627 19.2003 13.0527 18.1043 8.67968 16.3683C6.49031 15.4991 4.78595 14.4885 3.6455 13.4181C2.50701 12.3494 1.99999 11.2919 1.99999 10.2902C1.99993 9.73806 1.55206 9.29038 0.999989 9.29017C0.447739 9.29017 4.57764e-05 9.73793 -1.14441e-05 10.2902C-1.14441e-05 12.0249 0.889698 13.5746 2.27733 14.8771C3.66305 16.1776 5.61397 17.3027 7.94139 18.2267C12.6029 20.0773 18.975 21.2003 25.9619 21.2003C32.9487 21.2003 39.32 20.0772 43.9814 18.2267C46.3092 17.3026 48.2607 16.1778 49.6465 14.8771C49.7568 14.7735 49.863 14.6673 49.9668 14.5607C49.8279 17.5901 49.3036 19.9977 48.5273 21.9425C47.4267 24.6999 45.8004 26.5823 43.9512 28.0118C42.0812 29.4574 39.9819 30.443 37.8926 31.4035C35.8501 32.3423 33.7521 33.2826 32.1299 34.6222C29.1344 37.0958 28.095 41.5378 27.7422 45.0861C27.5618 46.9008 27.5538 48.5687 27.5898 49.7814C27.6079 50.3887 27.6371 50.8846 27.6621 51.2306C27.6746 51.4034 27.6859 51.5393 27.6943 51.6329C27.6985 51.6795 27.7016 51.7161 27.7041 51.7413C27.7053 51.754 27.7063 51.7646 27.707 51.7716C27.7073 51.7748 27.7078 51.7774 27.708 51.7794C27.7081 51.7805 27.7089 51.7817 27.709 51.7824V51.7833C27.7673 52.3325 28.2595 52.7312 28.8086 52.673C29.3578 52.6147 29.7556 52.1216 29.6973 51.5724V51.5675C29.6968 51.5631 29.6963 51.5559 29.6953 51.546C29.6933 51.5261 29.6902 51.4953 29.6865 51.4542C29.6791 51.3717 29.6678 51.2475 29.6562 51.087C29.633 50.7657 29.6059 50.2976 29.5889 49.7218C29.5546 48.5682 29.5628 46.9897 29.7324 45.2833C30.0799 41.7884 31.0734 38.0881 33.4033 36.1642C34.7818 35.0259 36.6092 34.195 38.7285 33.2208C40.8009 32.2682 43.1 31.1978 45.1748 29.5939C47.2702 27.974 49.1356 25.8134 50.3848 22.6837C51.6286 19.5675 52.2395 15.5464 51.9219 10.2306C51.8908 7.56192 49.7828 5.35206 46.8457 3.70325C43.8284 2.00946 39.6366 0.723361 34.8154 0.0108709Z" fill="#B08A6D"/>
</svg>
