<svg width="53" height="82" viewBox="0 0 53 82" fill="none" xmlns="http://www.w3.org/2000/svg">
<path d="M5.47949 26.1426C5.36718 25.5946 4.8375 25.242 4.29688 25.3556C3.75624 25.4695 3.40839 26.0064 3.52051 26.5544L13.3115 74.3297L13.3281 74.4089L13.3564 74.4841C14.0646 76.3715 15.7512 77.8942 18.0684 78.9338C20.3961 79.9781 23.4483 80.58 27.0811 80.58C30.7129 80.58 34.0483 79.9556 36.5127 78.9071C37.7428 78.3836 38.8033 77.7344 39.5713 76.9619C40.343 76.1855 40.8721 75.2256 40.8721 74.1238C40.872 73.564 40.4243 73.1101 39.8721 73.1101C39.3198 73.1101 38.8721 73.564 38.8721 74.1238C38.8721 74.5248 38.6849 74.9966 38.1621 75.5225C37.6356 76.0522 36.8228 76.5766 35.7383 77.0381C33.5734 77.9591 30.513 78.5527 27.0811 78.5527C23.6501 78.5526 20.8886 77.9826 18.8779 77.0807C16.8894 76.1886 15.7204 75.0134 15.25 73.8219L14.2754 69.0643C14.8722 69.4873 15.5428 69.8662 16.2773 70.1958C18.6052 71.2401 21.6581 71.842 25.291 71.842C27.2044 71.842 29.0294 71.6684 30.6846 71.354C31.2272 71.2507 31.5841 70.7212 31.4824 70.1711C31.3805 69.621 30.8582 69.2582 30.3154 69.3613C28.7885 69.6514 27.0876 69.8147 25.291 69.8147C21.8598 69.8147 19.0977 69.2448 17.0869 68.3427C15.0995 67.4511 13.9308 66.2768 13.46 65.0859L5.47949 26.1426ZM35.3652 0.510751C34.8189 0.429961 34.3114 0.813221 34.2314 1.36703C34.1516 1.92087 34.5298 2.43528 35.0762 2.51632C39.7554 3.21018 43.6978 4.44766 46.4395 5.99191C49.2421 7.57057 50.4999 9.29025 50.5 10.8494C50.5 11.849 49.9952 12.9092 48.8545 13.9835C47.7124 15.059 46.0048 16.0746 43.8115 16.9483C39.4307 18.6933 33.3105 19.7943 26.5 19.7943C19.6895 19.7943 13.5693 18.6933 9.18848 16.9483C6.99516 16.0746 5.28759 15.059 4.14551 13.9835C3.00478 12.9092 2.5 11.849 2.5 10.8494C2.49994 10.2896 2.05225 9.83575 1.5 9.83575C0.947754 9.83575 0.500061 10.2896 0.5 10.8494C0.5 12.5998 1.39478 14.1598 2.78418 15.4684C4.17223 16.7756 6.1264 17.9067 8.45703 18.8351C13.1243 20.6942 19.5039 21.8216 26.5 21.8216C33.4961 21.8216 39.8757 20.6942 44.543 18.8351C46.6729 17.9866 48.4874 16.9677 49.8438 15.801L44.5088 55.6084C44.4344 56.1631 44.818 56.6744 45.3652 56.7498C45.9125 56.8251 46.4168 56.4363 46.4912 55.8816L52.3799 11.9403C52.4571 11.5856 52.5 11.222 52.5 10.8494C52.4999 8.13052 50.3712 5.88726 47.4111 4.21996C44.39 2.51828 40.1927 1.22661 35.3652 0.510751Z" fill="#E3D2CA" stroke="#E3D2CA"/>
</svg>
