<svg width="52" height="79" viewBox="0 0 52 79" fill="none" xmlns="http://www.w3.org/2000/svg">
<path d="M4.97949 25.2967C4.86718 24.7561 4.3375 24.4083 3.79688 24.5204C3.25624 24.6327 2.90839 25.1624 3.02051 25.703L12.8115 72.8338L12.8281 72.912L12.8564 72.9862C13.5646 74.8481 15.2512 76.3503 17.5684 77.3758C19.8961 78.4061 22.9483 78.9998 26.5811 78.9999C30.2129 78.9999 33.5483 78.3839 36.0127 77.3495C37.2428 76.8331 38.3033 76.1927 39.0713 75.4305C39.843 74.6647 40.3721 73.7177 40.3721 72.6307C40.372 72.0785 39.9243 71.6307 39.3721 71.6307C38.8198 71.6307 38.3721 72.0785 38.3721 72.6307C38.3721 73.0264 38.1849 73.4918 37.6621 74.0106C37.1356 74.5331 36.3228 75.0505 35.2383 75.5057C33.0734 76.4143 30.013 76.9999 26.5811 76.9999C23.1501 76.9998 20.3886 76.4375 18.3779 75.5477C16.3894 74.6677 15.2204 73.5084 14.75 72.3329L13.7754 67.6395C14.3722 68.0568 15.0428 68.4306 15.7773 68.7557C18.1052 69.786 21.1581 70.3797 24.791 70.3797C26.7044 70.3797 28.5294 70.2085 30.1846 69.8983C30.7272 69.7964 31.0841 69.274 30.9824 68.7313C30.8805 68.1887 30.3582 67.8308 29.8154 67.9325C28.2885 68.2186 26.5876 68.3797 24.791 68.3797C21.3598 68.3797 18.5977 67.8175 16.5869 66.9276C14.5995 66.048 13.4308 64.8895 12.96 63.7147L4.97949 25.2967ZM34.8652 0.010606C34.3189 -0.069094 33.8114 0.308996 33.7314 0.855333C33.6516 1.40171 34.0298 1.90917 34.5762 1.98912C39.2554 2.67363 43.1978 3.89442 45.9395 5.41783C48.7421 6.9752 49.9999 8.67168 50 10.2098C50 11.196 49.4952 12.2418 48.3545 13.3016C47.2124 14.3626 45.5048 15.3645 43.3115 16.2264C38.9307 17.9479 32.8105 19.034 26 19.034C19.1895 19.034 13.0693 17.9479 8.68848 16.2264C6.49516 15.3645 4.78759 14.3626 3.64551 13.3016C2.50478 12.2418 2 11.196 2 10.2098C1.99994 9.65759 1.55225 9.20982 1 9.20982C0.447754 9.20982 6.10352e-05 9.65759 0 10.2098C0 11.9366 0.894775 13.4756 2.28418 14.7665C3.67223 16.0561 5.6264 17.1719 7.95703 18.0878C12.6243 19.9218 19.0039 21.034 26 21.034C32.9961 21.034 39.3757 19.9218 44.043 18.0878C46.1729 17.2508 47.9874 16.2456 49.3438 15.0946L44.0088 54.3651C43.9344 54.9123 44.318 55.4167 44.8652 55.4911C45.4125 55.5654 45.9168 55.1818 45.9912 54.6346L51.8799 11.286C51.9571 10.936 52 10.5774 52 10.2098C51.9999 7.5276 49.8712 5.31459 46.9111 3.66979C43.89 1.99106 39.6927 0.716808 34.8652 0.010606Z" fill="#B08A6D"/>
</svg>
