<svg width="48" height="101" viewBox="0 0 48 101" fill="none" xmlns="http://www.w3.org/2000/svg">
<path d="M33.1534 1.16736C33.541 1.00636 34.0213 0.922165 34.5099 1.09998C34.9984 1.27784 35.3116 1.65039 35.505 2.02283C35.6952 2.38908 35.8069 2.82223 35.8751 3.27478C35.9214 3.5817 35.856 3.90869 35.8058 4.12341C35.7454 4.38122 35.6538 4.68238 35.5431 5.00916C35.3209 5.66509 34.9959 6.49986 34.6095 7.44568C33.8372 9.33585 32.7827 11.7591 31.7433 14.2162C30.698 16.6873 29.6616 19.207 28.9025 21.3412C28.5227 22.4088 28.2182 23.3645 28.0167 24.1586C27.8089 24.9778 27.7346 25.5363 27.754 25.851C27.8423 27.2769 28.8805 28.4285 30.2853 28.9398C31.69 29.4511 33.2249 29.236 34.2091 28.2006C34.4247 27.9737 34.725 27.4991 35.089 26.7367C35.4416 25.9983 35.8177 25.0701 36.2072 24.0062C36.9857 21.8794 37.7955 19.2772 38.5675 16.7064C39.3349 14.1508 40.0693 11.6111 40.6808 9.66248C40.9869 8.68704 41.2697 7.83584 41.5177 7.18884C41.6412 6.86663 41.7634 6.57638 41.882 6.33923C41.9806 6.14209 42.1396 5.84697 42.3741 5.64001C42.7173 5.33718 43.0819 5.07762 43.463 4.91931C43.8506 4.75836 44.3299 4.67415 44.8185 4.85193C45.307 5.02972 45.6201 5.40237 45.8136 5.77478C46.0038 6.14101 46.1165 6.57421 46.1847 7.02673C46.2195 7.25747 46.2026 7.54263 46.1818 7.78064C46.1581 8.05111 46.116 8.38318 46.0597 8.76208C45.9469 9.52165 45.7696 10.5096 45.5411 11.6498C45.0837 13.9321 44.4139 16.8564 43.6193 19.8402C42.8254 22.8211 41.9019 25.8815 40.9366 28.4281C40.4542 29.7008 39.9553 30.8619 39.4493 31.8275C38.9524 32.7757 38.4118 33.6077 37.8243 34.1615C35.8813 35.9932 34.6692 36.602 33.6622 37.267C32.7255 37.8856 31.7958 38.6471 30.171 40.9476C29.8163 41.4499 29.2228 42.7653 28.4357 44.8314C27.6961 46.7728 26.8244 49.2682 25.8683 52.1244L41.7238 94.1996L41.8722 94.5941L41.6935 94.975C41.3695 95.6697 40.7302 96.2432 40.0724 96.6869C39.3898 97.1473 38.5707 97.5463 37.7365 97.85C36.9022 98.1536 36.0182 98.3753 35.1993 98.4613C34.4102 98.5442 33.5513 98.5157 32.8566 98.1918L32.4591 98.0062L32.3263 97.5873L21.8507 64.558C19.5199 71.9227 17.0925 79.74 15.0646 86.0004C13.9105 89.563 12.8776 92.6419 12.0577 94.8656C11.6489 95.9744 11.286 96.8906 10.9816 97.5531C10.8307 97.8815 10.6826 98.1733 10.5402 98.4027C10.4693 98.5167 10.3857 98.6383 10.2902 98.7474C10.2104 98.8385 10.0465 99.0109 9.797 99.1146C9.10006 99.4041 8.26916 99.4407 7.4845 99.3627C6.68078 99.2827 5.8259 99.0725 5.01868 98.7787C4.21127 98.4848 3.42123 98.0955 2.75403 97.64C2.10282 97.1954 1.49053 96.6339 1.1427 95.9642C1.00318 95.6956 0.998203 95.4241 1.00012 95.2982C1.00258 95.1387 1.02445 94.9731 1.05188 94.8177C1.10727 94.5043 1.20768 94.1203 1.33704 93.6888C1.59771 92.8193 2.00922 91.6517 2.5343 90.2611C3.58644 87.4748 5.12032 83.718 6.88098 79.4955C10.3623 71.1464 14.7316 60.9725 18.0968 52.725L17.9728 52.3353C16.6117 50.5096 15.0188 49.4925 13.4806 48.4828C11.9564 47.4823 10.3273 46.4019 9.5968 44.3949C8.96529 42.6598 6.40977 32.8855 4.75696 23.3002C3.92965 18.5022 3.31777 13.6908 3.29407 9.92126C3.28226 8.04349 3.41512 6.36065 3.77161 5.04724C4.11519 3.78156 4.74958 2.56596 5.97083 2.12146L6.89954 1.78357L7.24817 2.70935L22.1515 42.2611C22.3502 41.6915 22.5278 41.1698 22.6769 40.6986C23.0347 39.5678 23.2159 38.8152 23.2482 38.4281C23.4786 35.6651 23.1491 34.5685 22.7052 33.5062C22.2087 32.3182 21.4716 31.0004 21.0314 28.0804C20.9018 27.2208 20.9964 26.1911 21.2101 25.1039C21.4268 24.0011 21.7817 22.7657 22.2257 21.4662C23.1139 18.8666 24.384 15.9383 25.7081 13.1713C27.0338 10.401 28.4235 7.77207 29.5597 5.76501C30.1275 4.76205 30.6359 3.90735 31.0441 3.26501C31.2475 2.94485 31.431 2.66952 31.588 2.45154C31.7275 2.25783 31.8967 2.03711 32.0656 1.88806C32.4085 1.58539 32.7725 1.32568 33.1534 1.16736ZM38.3087 3.04333C38.6963 2.88239 39.1757 2.79814 39.6642 2.97595C40.1527 3.15379 40.4659 3.52637 40.6593 3.8988C40.8495 4.26506 40.9622 4.6982 41.0304 5.15076C41.0691 5.40734 41.037 5.70298 41.006 5.92712C40.9701 6.18614 40.9122 6.49608 40.838 6.84119C40.689 7.53419 40.4643 8.42256 40.1886 9.43005C39.6364 11.448 38.8673 13.9916 38.0548 16.5131C37.2425 19.034 36.3822 21.5455 35.6476 23.4994C35.2809 24.4746 34.9406 25.3241 34.6495 25.9701C34.5045 26.292 34.3653 26.5781 34.2355 26.8099C34.1258 27.0059 33.9617 27.2789 33.7462 27.4691C32.82 28.2865 31.5908 28.362 30.6105 28.0052C29.6301 27.6484 28.737 26.8001 28.5529 25.5785C28.5103 25.2961 28.5586 24.9829 28.5997 24.7621C28.6484 24.5012 28.7241 24.1921 28.8185 23.8519C29.0079 23.1693 29.2888 22.2991 29.63 21.3148C30.3138 19.3425 31.2574 16.8608 32.2433 14.4027C33.2293 11.9444 34.2633 9.49746 35.1281 7.59314C35.5598 6.64238 35.9537 5.8158 36.2823 5.18787C36.4461 4.87506 36.5999 4.59952 36.7384 4.37732C36.858 4.18539 37.0239 3.93696 37.2198 3.76404L37.4816 3.54626C37.7467 3.3381 38.0229 3.16205 38.3087 3.04333Z" stroke="#B08A6D" stroke-width="2"/>
</svg>
