<svg width="57" height="58" viewBox="0 0 57 58" fill="none" xmlns="http://www.w3.org/2000/svg">
<path d="M10.2008 25.41C9.0187 23.858 7.32669 22.7213 5.03577 23.0077C2.57956 23.3147 1.191 24.8928 0.53186 26.7235C-0.107517 28.4995 -0.0937271 30.5605 0.173462 32.1639C0.460606 33.8868 1.37109 35.5201 2.39612 36.8348C3.42279 38.1516 4.63505 39.2397 5.63831 39.8534C6.10938 40.1412 6.72521 39.9923 7.01331 39.5213C7.30114 39.0503 7.15226 38.4344 6.68127 38.1463C5.91867 37.6798 4.87994 36.7682 3.97327 35.6053C3.06487 34.4402 2.35903 33.1128 2.14612 31.8358C1.91337 30.4393 1.92723 28.75 2.41272 27.4012C2.87862 26.1071 3.74015 25.185 5.28381 24.9921C6.64796 24.8215 7.70589 25.4348 8.60999 26.6219C9.53841 27.841 10.2082 29.5604 10.6979 31.2743L10.7018 31.286L14.4596 43.8837L14.4625 43.8905L14.4645 43.8983L16.9967 51.9315L17.0055 51.9588L17.0162 51.9862C17.7244 53.8481 19.411 55.3503 21.7281 56.3758C24.0559 57.406 27.1081 57.9998 30.7408 57.9999C34.3727 57.9999 37.7081 57.3839 40.1725 56.3495C41.4026 55.8331 42.4631 55.1927 43.2311 54.4305C44.0028 53.6647 44.5319 52.7177 44.5319 51.6307C44.5318 51.0785 44.0841 50.6307 43.5319 50.6307C42.9796 50.6307 42.5319 51.0785 42.5319 51.6307C42.5319 52.0264 42.3447 52.4918 41.8219 53.0106C41.2954 53.5331 40.4826 54.0505 39.3981 54.5057C37.2332 55.4143 34.1728 55.9999 30.7408 55.9999C27.3099 55.9998 24.5484 55.4375 22.5377 54.5477C20.5232 53.6562 19.3492 52.4782 18.8912 51.287L17.7633 47.7079C18.3435 48.1088 18.9763 48.4847 19.653 48.8231C22.2139 50.104 25.5247 50.9666 29.2086 50.9667C30.5957 50.9667 31.9359 50.8772 33.1979 50.7098C33.7453 50.6372 34.1307 50.1342 34.0582 49.5868C33.9856 49.0393 33.4827 48.6538 32.9352 48.7264C31.7627 48.8819 30.5103 48.9667 29.2086 48.9667C25.8289 48.9666 22.8259 48.1731 20.5485 47.034C18.245 45.8819 16.825 44.4505 16.3629 43.2626L12.6178 30.7137C12.1076 28.9306 11.356 26.9268 10.2008 25.41ZM39.025 0.0106057C38.4787 -0.0690931 37.9712 0.308997 37.8912 0.855332C37.8114 1.40171 38.1896 1.90917 38.736 1.98912C43.4152 2.67363 47.3575 3.89442 50.0992 5.41783C52.9019 6.9752 54.1597 8.67168 54.1598 10.2098C54.1598 11.196 53.655 12.2418 52.5143 13.3016C51.3722 14.3626 49.6646 15.3645 47.4713 16.2264C43.0905 17.9479 36.9703 19.034 30.1598 19.034C23.3493 19.034 17.2291 17.9479 12.8483 16.2264C10.6549 15.3645 8.94738 14.3626 7.8053 13.3016C6.66457 12.2418 6.15979 11.196 6.15979 10.2098C6.15973 9.65759 5.71204 9.20982 5.15979 9.20982C4.60754 9.20982 4.15985 9.65759 4.15979 10.2098C4.15979 11.9366 5.05457 13.4756 6.44397 14.7665C7.83202 16.0561 9.78619 17.1719 12.1168 18.0878C16.7841 19.9218 23.1636 21.034 30.1598 21.034C37.1559 21.034 43.5354 19.9218 48.2028 18.0878C50.0475 17.3628 51.6563 16.5121 52.9352 15.5497L46.0494 43.5262C45.9177 44.0623 46.2449 44.6041 46.7809 44.7362C47.3171 44.8682 47.8588 44.54 47.9908 44.0038L55.9928 11.4862C55.9979 11.4667 56.0026 11.4471 56.0074 11.4276L56.0221 11.37C56.0252 11.3572 56.0263 11.3437 56.0289 11.3309C56.1127 10.9667 56.1598 10.5932 56.1598 10.2098C56.1597 7.5276 54.0309 5.31459 51.0709 3.66979C48.0498 1.99106 43.8525 0.716807 39.025 0.0106057Z" fill="#B08A6D"/>
</svg>
