<svg width="50" height="50" viewBox="0 0 50 50" fill="none" xmlns="http://www.w3.org/2000/svg">
<path fill-rule="evenodd" clip-rule="evenodd" d="M33.3333 42.1875C38.2234 42.1875 42.1875 38.2234 42.1875 33.3333V16.6667C42.1875 11.7766 38.2234 7.8125 33.3333 7.8125H16.6667C11.7766 7.8125 7.8125 11.7766 7.8125 16.6667V33.3333C7.8125 38.2234 11.7766 42.1875 16.6667 42.1875H33.3333ZM45.3125 33.3333C45.3125 39.9492 39.9492 45.3125 33.3333 45.3125H16.6667C10.0508 45.3125 4.6875 39.9492 4.6875 33.3333V16.6667C4.6875 10.0508 10.0508 4.6875 16.6667 4.6875H33.3333C39.9492 4.6875 45.3125 10.0508 45.3125 16.6667V33.3333Z" fill="#271D16"/>
<path fill-rule="evenodd" clip-rule="evenodd" d="M26.833 10.9577C27.5894 10.8349 28.3232 11.2789 28.5656 12.0059C28.8403 12.83 29.5441 14.1651 30.7111 15.2731C31.8516 16.3558 33.3919 17.1875 35.4166 17.1875C36.2795 17.1875 36.9791 17.887 36.9791 18.75C36.9791 19.6129 36.2795 20.3125 35.4166 20.3125C32.4942 20.3125 30.2435 19.105 28.6458 17.6204V31.25C28.6458 35.5647 25.148 39.0625 20.8333 39.0625C16.5185 39.0625 13.0208 35.5647 13.0208 31.25C13.0208 26.9353 16.5185 23.4375 20.8333 23.4375C21.6962 23.4375 22.3958 24.137 22.3958 25C22.3958 25.8629 21.6962 26.5625 20.8333 26.5625C18.2444 26.5625 16.1458 28.6612 16.1458 31.25C16.1458 33.8388 18.2444 35.9375 20.8333 35.9375C23.4221 35.9375 25.5208 33.8388 25.5208 31.25V12.5C25.5208 11.7337 26.0765 11.0804 26.833 10.9577Z" fill="#271D16"/>
</svg>
