<svg width="50" height="50" viewBox="0 0 50 50" fill="none" xmlns="http://www.w3.org/2000/svg">
<path fill-rule="evenodd" clip-rule="evenodd" d="M25.0001 18.2292C21.2607 18.2292 18.2292 21.2606 18.2292 25C18.2292 28.7394 21.2607 31.7708 25.0001 31.7708C28.7395 31.7708 31.7709 28.7394 31.7709 25C31.7709 21.2606 28.7395 18.2292 25.0001 18.2292ZM15.1042 25C15.1042 19.5347 19.5348 15.1042 25.0001 15.1042C30.4654 15.1042 34.8959 19.5347 34.8959 25C34.8959 30.4653 30.4654 34.8958 25.0001 34.8958C19.5348 34.8958 15.1042 30.4653 15.1042 25Z" fill="#271D16"/>
<path fill-rule="evenodd" clip-rule="evenodd" d="M16.6667 7.8125C11.7766 7.8125 7.8125 11.7766 7.8125 16.6667V33.3333C7.8125 38.2234 11.7766 42.1875 16.6667 42.1875H33.3333C38.2234 42.1875 42.1875 38.2234 42.1875 33.3333V16.6667C42.1875 11.7766 38.2234 7.8125 33.3333 7.8125H16.6667ZM4.6875 16.6667C4.6875 10.0508 10.0508 4.6875 16.6667 4.6875H33.3333C39.9492 4.6875 45.3125 10.0508 45.3125 16.6667V33.3333C45.3125 39.9492 39.9492 45.3125 33.3333 45.3125H16.6667C10.0508 45.3125 4.6875 39.9492 4.6875 33.3333V16.6667Z" fill="#271D16"/>
<path fill-rule="evenodd" clip-rule="evenodd" d="M37.5244 12.378C38.1658 12.9552 38.2178 13.9432 37.6405 14.5846L37.6197 14.6078C37.0424 15.2492 36.0544 15.3012 35.413 14.7239C34.7716 14.1466 34.7196 13.1587 35.2969 12.5172L35.3177 12.4941C35.895 11.8527 36.8829 11.8007 37.5244 12.378Z" fill="#271D16"/>
</svg>
