<svg width="50" height="50" viewBox="0 0 50 50" fill="none" xmlns="http://www.w3.org/2000/svg">
<path fill-rule="evenodd" clip-rule="evenodd" d="M9.44469 7.8125L36.1808 42.1875H40.5552L13.8191 7.8125H9.44469ZM6.58569 9.22671C5.14881 7.37929 6.46533 4.6875 8.80574 4.6875H13.9719C14.8398 4.6875 15.6591 5.0882 16.192 5.77329L43.4142 40.7733C44.8511 42.6207 43.5346 45.3125 41.1941 45.3125H36.028C35.1601 45.3125 34.3408 44.9118 33.8079 44.2267L6.58569 9.22671Z" fill="#271D16"/>
<path fill-rule="evenodd" clip-rule="evenodd" d="M42.7048 5.08216C42.0598 4.50885 41.0722 4.56694 40.4989 5.21192L7.16557 42.7119C6.59226 43.3569 6.65036 44.3445 7.29533 44.9178C7.9403 45.4911 8.92791 45.433 9.50122 44.7881L42.8346 7.28805C43.4079 6.64308 43.3498 5.65547 42.7048 5.08216Z" fill="#271D16"/>
</svg>
