<svg width="50" height="50" viewBox="0 0 50 50" fill="none" xmlns="http://www.w3.org/2000/svg">
<path fill-rule="evenodd" clip-rule="evenodd" d="M8.46541 2.60416L16.2798 2.60416C16.9306 2.60416 17.5132 3.00751 17.7423 3.61663L20.7745 11.6789C20.8748 11.9458 20.9003 12.235 20.848 12.5153L19.3287 20.6652C21.1961 25.057 24.2807 28.0081 29.3967 30.6554L37.4487 29.0952C37.7345 29.0398 38.0302 29.0654 38.3023 29.1691L46.3893 32.2508C46.9951 32.4816 47.3954 33.0626 47.3954 33.7109L47.3954 41.178C47.3954 44.5645 44.4117 47.3127 40.9216 46.5533C34.5599 45.169 22.7739 41.6507 14.5197 33.3965C6.6132 25.49 3.96414 14.5677 3.0724 8.66393C2.56358 5.29525 5.26526 2.60416 8.46541 2.60416Z" fill="#271D16"/>
</svg>
