<svg width="36" height="50" viewBox="0 0 36 50" fill="none" xmlns="http://www.w3.org/2000/svg">
<mask id="path-1-inside-1_157_197" fill="white">
<path d="M17.8574 0C27.7195 0.000151527 35.7139 7.99529 35.7139 17.8574C35.7137 36.573 17.9226 49.9511 17.8574 50C17.8574 50 0.000176807 36.6073 0 17.8574C0 7.99519 7.99519 0 17.8574 0ZM17.8574 10.7139C13.9125 10.7139 10.7139 13.9125 10.7139 17.8574C10.714 21.8022 13.9126 25 17.8574 25C21.8021 24.9998 24.9998 21.8021 25 17.8574C25 13.9126 21.8022 10.714 17.8574 10.7139Z"/>
</mask>
<path d="M17.8574 0C27.7195 0.000151527 35.7139 7.99529 35.7139 17.8574C35.7137 36.573 17.9226 49.9511 17.8574 50C17.8574 50 0.000176807 36.6073 0 17.8574C0 7.99519 7.99519 0 17.8574 0ZM17.8574 10.7139C13.9125 10.7139 10.7139 13.9125 10.7139 17.8574C10.714 21.8022 13.9126 25 17.8574 25C21.8021 24.9998 24.9998 21.8021 25 17.8574C25 13.9126 21.8022 10.714 17.8574 10.7139Z" fill="#271D16"/>
<path d="M17.8574 0L17.8574 -1H17.8574V0ZM35.7139 17.8574L36.7139 17.8574V17.8574H35.7139ZM17.8574 50L17.2574 50.8L17.8578 51.2503L18.4579 50.7996L17.8574 50ZM0 17.8574L-1 17.8574L-1 17.8574L0 17.8574ZM17.8574 10.7139L17.8575 9.71387H17.8574V10.7139ZM10.7139 17.8574L9.71387 17.8574L9.71387 17.8575L10.7139 17.8574ZM17.8574 25L17.8574 26L17.8575 26L17.8574 25ZM25 17.8574L26 17.8575V17.8574H25ZM17.8574 0L17.8574 1C27.1672 1.00014 34.7139 8.54752 34.7139 17.8574H35.7139H36.7139C36.7139 7.44306 28.2719 -0.99984 17.8574 -1L17.8574 0ZM35.7139 17.8574L34.7139 17.8574C34.7138 26.8992 30.4114 34.7079 26.0227 40.3121C21.6416 45.9067 17.2529 49.2034 17.2569 49.2004L17.8574 50L18.4579 50.7996C18.5271 50.7477 23.0666 47.3309 27.5973 41.5452C32.1205 35.7693 36.7138 27.5311 36.7139 17.8574L35.7139 17.8574ZM17.8574 50C18.4574 49.2 18.4576 49.2001 18.4577 49.2002C18.4577 49.2002 18.4577 49.2002 18.4577 49.2002C18.4575 49.2 18.457 49.1997 18.4563 49.1991C18.4548 49.198 18.4523 49.1961 18.4487 49.1934C18.4416 49.188 18.4302 49.1793 18.4148 49.1675C18.3839 49.1438 18.3367 49.1074 18.2743 49.0584C18.1496 48.9605 17.9641 48.8125 17.7265 48.6165C17.2512 48.2244 16.568 47.6405 15.7463 46.8803C14.1016 45.359 11.9079 43.1378 9.71562 40.3428C5.31851 34.7365 1.00009 26.9159 1 17.8574L0 17.8574L-1 17.8574C-0.999909 27.5488 3.61038 35.7994 8.14193 41.5771C10.414 44.4739 12.6846 46.7728 14.3882 48.3485C15.2405 49.1369 15.9525 49.7457 16.4537 50.1593C16.7044 50.3661 16.9026 50.5242 17.0394 50.6316C17.1078 50.6853 17.1609 50.7264 17.1976 50.7545C17.216 50.7686 17.2302 50.7794 17.2402 50.787C17.2452 50.7908 17.2492 50.7938 17.2521 50.796C17.2535 50.7971 17.2547 50.7979 17.2556 50.7986C17.256 50.7989 17.2565 50.7993 17.2567 50.7995C17.2571 50.7998 17.2574 50.8 17.8574 50ZM0 17.8574H1C1 8.54748 8.54748 1 17.8574 1V0V-1C7.44291 -1 -1 7.44291 -1 17.8574H0ZM17.8574 10.7139V9.71387C13.3602 9.71387 9.71387 13.3602 9.71387 17.8574H10.7139H11.7139C11.7139 14.4648 14.4648 11.7139 17.8574 11.7139V10.7139ZM10.7139 17.8574L9.71387 17.8575C9.71404 22.3546 13.3605 26 17.8574 26V25V24C14.4648 24 11.714 21.2498 11.7139 17.8574L10.7139 17.8574ZM17.8574 25L17.8575 26C22.3544 25.9998 25.9998 22.3544 26 17.8575L25 17.8574L24 17.8574C23.9999 21.2498 21.2498 23.9999 17.8574 24L17.8574 25ZM25 17.8574H26C26 13.3605 22.3546 9.71404 17.8575 9.71387L17.8574 10.7139L17.8574 11.7139C21.2498 11.714 24 14.4648 24 17.8574H25Z" fill="#271D16" mask="url(#path-1-inside-1_157_197)"/>
</svg>
